<svg width="194" height="222" viewBox="0 0 194 222" fill="none" xmlns="http://www.w3.org/2000/svg">
    <g clip-path="url(#clip0)">
    <path d="M55.3135 174.363C52.808 174.363 50.622 173.967 48.615 173.162C45.3425 171.834 41.2135 168.806 40.1525 161.831C39.2193 155.673 38.3372 149.414 37.4807 143.359C37.11 140.74 36.7393 138.108 36.3558 135.489C35.6399 133.778 35.3843 132.04 35.576 130.328L31.9711 100.844C31.4087 100.819 30.859 100.716 30.3349 100.55C29.7085 100.359 28.5452 99.9882 27.4842 98.9407C24.2628 95.7342 23.777 91.3397 26.2314 87.469C26.7939 86.5747 27.1135 85.5783 27.2669 84.1986C27.318 83.8026 27.4075 83.4449 27.5353 83.1639C27.7526 81.9758 28.4301 80.941 29.5934 80.0979L28.3918 68.0769L27.5737 59.9138C27.0495 54.7017 26.5254 49.4768 26.0013 44.2647C25.7073 41.2498 25.4133 38.2478 25.132 35.2329C24.7102 30.8512 24.3011 26.4694 23.8537 22.1004C23.2657 16.3901 26.6916 11.5102 32.1629 10.2327C35.0903 9.54284 38.0049 9.27457 40.8172 9.01907C41.6609 8.94242 42.5046 8.86577 43.3483 8.77635C52.6034 7.79269 64.8243 6.51521 77.2242 5.31439C86.3003 4.43293 95.4021 3.66644 103.877 2.95105C110.205 2.42729 116.533 1.95462 122.861 1.46918L127.527 1.12426C130.927 0.868764 134.315 0.638818 137.715 0.396097L138.763 0.319449C139.019 0.306674 139.262 0.26835 139.517 0.2428C140.067 0.178926 140.681 0.115052 141.371 0.115052C141.639 0.115052 141.895 0.127827 142.151 0.153377C143.148 0.0639533 144.401 -0.0126953 145.692 -0.0126953C147.507 -0.0126953 149.143 0.153377 150.664 0.498296C155.701 1.62248 158.859 4.89282 159.817 9.93885C160.38 12.9282 160.597 15.9047 160.802 18.779C160.878 19.8649 160.955 20.9635 161.057 22.0493L163.742 52.0062L163.934 54.1268C164.355 54.4717 164.688 54.8166 164.943 55.0721C165.033 55.1616 165.11 55.251 165.199 55.3404C166.145 56.2219 166.976 57.1416 167.781 58.0231C168.088 58.3552 168.395 58.7002 168.702 59.0323L168.83 59.1728L168.945 59.3261C169.034 59.4539 169.149 59.5561 169.251 59.671C169.724 60.182 170.428 60.9485 170.875 62.0727L171.297 62.9414C172.652 65.5474 174.39 69.1244 175.515 73.0335C176.18 75.3585 176.18 77.8623 175.49 80.7111C174.735 83.8537 172.192 85.8849 169.009 85.8849C168.178 85.8849 167.321 85.7444 166.452 85.4761C166.26 85.4122 166.068 85.3611 165.889 85.2972L167.692 115.663V115.842C167.654 116.902 167.308 117.758 166.899 118.409C167.04 118.55 167.181 118.716 167.308 118.882L168.139 119.981L168.024 121.348C167.909 122.753 168.011 124.248 168.114 125.819C168.165 126.675 168.216 127.518 168.242 128.374C168.433 134.863 168.689 141.596 168.996 148.979C169.072 150.832 169.188 153.361 168.19 155.903C166.171 161.064 162.272 164.284 156.916 165.191C155.036 165.51 153.157 165.727 151.342 165.944C150.562 166.034 149.795 166.123 149.028 166.225C145.743 166.813 142.445 167.171 139.249 167.503L137.651 167.669C132.934 168.18 128.204 168.653 123.474 169.113L117.441 169.713C116.29 170.249 115.191 170.313 114.5 170.339L114.309 170.352C112.506 170.646 110.729 170.773 109.016 170.901C108.3 170.952 107.585 171.003 106.869 171.08C104.529 171.297 102.19 171.489 99.8379 171.667C97.2173 171.872 94.6095 172.089 92.0017 172.332L91.6565 172.357C91.3881 172.37 91.1196 172.383 90.864 172.383C90.1865 172.383 89.5729 172.293 88.9848 172.127L81.66 172.626C73.4914 173.188 65.3101 173.737 57.1415 174.274C56.5279 174.35 55.9143 174.363 55.3135 174.363Z" fill="#432918"/>
    <path d="M82.5165 168.742C82.5165 168.742 62.7023 184.2 65.9365 216.085L58.7267 219.203" stroke="#432918" stroke-width="4.3969" stroke-miterlimit="10" stroke-linecap="round" stroke-linejoin="round"/>
    <path d="M130.965 164.054C130.965 164.054 127.68 188.952 152.339 209.43L149.386 216.711" stroke="#432918" stroke-width="4.3969" stroke-miterlimit="10" stroke-linecap="round" stroke-linejoin="round"/>
    <path d="M7.15869 105.788C7.15869 105.788 8.13023 153.757 43.6935 132.998" stroke="#432918" stroke-width="4.3969" stroke-miterlimit="10" stroke-linecap="round" stroke-linejoin="round"/>
    <path d="M7.54218 104.319L10.5463 99.9116" stroke="#432918" stroke-width="4.3969" stroke-miterlimit="10" stroke-linecap="round" stroke-linejoin="round"/>
    <path d="M7.54219 104.319L6.25107 99.145" stroke="#432918" stroke-width="4.3969" stroke-miterlimit="10" stroke-linecap="round" stroke-linejoin="round"/>
    <path d="M7.54218 104.319L2.81235 101.84" stroke="#432918" stroke-width="4.3969" stroke-miterlimit="10" stroke-linecap="round" stroke-linejoin="round"/>
    <path d="M39.2321 130.379C38.6952 125.972 38.1583 121.565 37.6214 117.157C36.8032 110.463 35.9851 103.769 35.167 97.0755C35.3076 96.6539 35.6783 96.5517 36.0618 96.4879C37.9282 96.1557 39.7945 96.0407 41.6865 96.4751C47.3623 97.7909 52.9358 99.5538 58.65 100.704C61.4112 101.253 64.1851 101.662 66.9975 101.738C71.689 101.853 76.2526 100.933 80.8163 99.9498C81.9668 99.7071 83.1173 99.4644 84.2422 99.1195C84.7024 98.9917 85.1498 99.0173 85.61 99.1067C92.871 100.601 99.9018 99.4899 106.766 97.0244C114.091 94.3928 120.956 90.7137 128.153 87.7627C135.938 84.569 143.876 81.8352 152.16 80.2511C152.723 80.1362 153.323 79.9701 153.835 80.4427C154.257 82.1035 154.653 83.7259 154.448 85.5143C154.244 87.3411 154.806 89.1679 154.883 91.0203C154.96 92.8981 154.781 94.7888 155.1 96.6667C155.791 100.729 155.407 104.855 155.97 108.943C156.238 110.949 156.085 113.031 156.225 115.075C156.276 115.778 156.238 116.493 156.417 117.196C156.519 117.605 156.609 118.026 156.583 118.448C156.2 125.55 157.094 132.602 157.235 139.692C157.312 143.601 157.452 147.549 157.619 151.47C157.772 155.341 156.11 158.56 152.71 160.694C151.393 161.524 149.961 162.125 148.504 162.661C144.797 163.338 141.039 163.683 137.293 164.092C130.416 164.833 123.525 165.484 116.648 166.187C116.482 166.2 116.328 166.276 116.175 166.328C115.485 166.775 114.692 166.724 113.925 166.787C111.484 167.196 109.016 167.286 106.562 167.516C101.602 167.975 96.642 168.308 91.6821 168.78C90.979 168.819 90.2632 168.908 89.6112 168.512C78.7198 169.253 67.8284 169.994 56.9242 170.722C54.5593 170.875 52.2327 170.748 49.9829 169.841C46.1351 168.295 44.3326 165.191 43.7574 161.333C42.4279 152.492 41.2007 143.64 39.9351 134.799C39.9096 134.633 39.8457 134.48 39.7945 134.314C39.2321 133.036 39.002 131.733 39.2321 130.379Z" fill="#E62F2D"/>
    <path d="M33.4156 81.8864C32.9427 77.1725 32.4825 72.4459 32.0095 67.732C31.2169 59.7988 30.3988 51.8657 29.619 43.9326C28.8903 36.536 28.2256 29.1394 27.4714 21.7556C27.0751 17.8976 29.2227 14.6656 33.0066 13.7713C36.5348 12.941 40.1525 12.7621 43.7446 12.3917C55.0195 11.1908 66.2944 10.0283 77.5821 8.9297C86.441 8.07379 95.3126 7.32008 104.184 6.57914C112.059 5.92763 119.933 5.35276 127.808 4.75235C131.541 4.4713 135.286 4.21581 139.019 3.96031C140.054 3.88366 141.077 3.66649 142.112 3.80702C145.832 4.31801 148.325 6.73244 148.709 10.5776C149.207 15.6237 149.667 20.6697 150.076 25.7285C150.447 30.3274 150.869 34.9136 151.214 39.5125C151.572 44.1881 152.083 48.8509 152.352 53.5392C152.531 56.6307 152.697 59.735 153.259 62.7881C153.362 63.6568 152.62 63.6952 152.109 63.8484C148.888 64.8193 145.692 65.8413 142.432 66.6589C135.734 68.3452 129.163 70.3636 122.937 73.3784C117.453 76.0356 112.263 79.2165 107.291 82.7551C104.248 84.9268 101.385 87.3285 98.4189 89.6024C96.4887 91.097 94.4689 92.4512 92.2446 93.4604C91.4009 93.8436 90.5828 94.3035 89.6751 94.5335C88.6653 95.0061 87.5531 95.0828 86.5049 95.4149C84.3956 95.4788 82.3119 95.8748 80.2155 96.0537C79.7808 96.1303 79.3462 96.1559 78.8988 96.1431C77.0069 96.1303 75.1277 96.1431 73.2358 96.1431C67.6878 96.1942 62.6 94.4313 57.5889 92.2723C50.9927 89.4363 44.4349 86.4854 37.8515 83.6366C36.8032 83.1767 35.6911 82.9467 34.6045 82.6529C34.1443 82.5252 33.5946 82.4868 33.4156 81.8864Z" fill="#432918"/>
    <path d="M148.479 162.648C148.312 162.623 148.146 162.597 147.801 162.546C149.22 161.997 150.498 161.499 151.7 160.834C154.563 159.25 156.366 156.989 157.018 153.693C157.529 151.087 156.903 148.558 157.005 146.003C157.171 141.915 156.622 137.865 156.558 133.79C156.506 130.456 156.545 127.109 156.149 123.813C155.842 121.245 156.212 118.703 155.893 116.11C155.663 114.27 155.343 112.316 155.624 110.336C155.918 108.215 155.087 106.056 155.164 103.872C155.203 102.901 154.896 101.943 155.177 100.946C155.42 100.065 154.755 99.2089 154.781 98.4041C154.857 96.4368 154.359 94.5334 154.563 92.5405C154.755 90.6371 154.257 88.657 154.065 86.7152C154.052 86.5491 153.924 86.3703 153.975 86.2298C154.563 84.2624 153.72 82.359 153.707 80.4172C153.886 80.0212 154.244 79.919 154.615 79.8424C156.647 79.4336 158.705 79.5102 160.763 79.6124C161.224 79.638 161.671 79.7785 161.965 80.2001C162.668 92.0423 163.371 103.872 164.074 115.714C164.036 116.787 163.052 117.157 162.489 117.835C162.067 118.358 161.492 118.716 160.955 119.099C160.546 119.38 160.047 119.674 160.29 120.287C160.508 120.824 161.019 120.913 161.543 120.939C162.042 120.964 162.54 120.901 163.039 120.824C163.512 120.747 164.036 120.568 164.419 121.079C164.228 123.558 164.547 126.023 164.624 128.489C164.828 135.374 165.084 142.26 165.378 149.133C165.455 150.998 165.506 152.825 164.816 154.588C163.282 158.497 160.469 160.911 156.315 161.614C153.732 162.061 151.099 162.316 148.479 162.648Z" fill="#D31B1C"/>
    <path d="M153.259 63.0564C152.85 63.0053 152.723 62.7626 152.697 62.3665C152.441 59.0451 152.135 55.7236 151.904 52.4022C151.674 49.0041 151.355 45.5933 151.01 42.2079C150.754 39.6913 150.588 37.1364 150.409 34.6069C150.153 30.8639 149.693 27.1465 149.476 23.4035C149.284 20.1587 148.773 16.9394 148.619 13.6946C148.517 11.2163 148.402 8.69971 146.676 6.59187C145.449 5.09722 143.825 4.42016 142.1 3.81975C144.695 3.5898 147.29 3.47483 149.872 4.04969C153.438 4.8545 155.573 6.98789 156.264 10.6287C156.992 14.525 157.107 18.4596 157.452 22.3943C158.347 32.3841 159.242 42.3612 160.137 52.3511C160.265 53.7308 160.393 55.1105 160.52 56.4774C160.968 57.5377 160.546 58.5086 159.958 59.275C158.398 61.2807 156.174 62.3665 153.835 63.2097C153.643 63.2735 153.426 63.2097 153.259 63.0564Z" fill="#5E220D"/>
    <path d="M161.965 80.1872C159.191 79.6634 156.443 79.8295 153.707 80.4043C150.728 80.6598 147.865 81.503 145.001 82.2695C135.082 84.9266 125.724 89.0529 116.418 93.3452C110.895 95.8874 105.348 98.4168 99.2882 99.4388C94.6734 100.205 90.0458 100.576 85.4183 99.426C85.0987 99.3493 84.7535 99.3877 84.4212 99.3621C82.6954 98.9789 81.8006 97.612 80.8035 96.3473C80.6373 96.1173 80.3433 96.0151 80.2282 95.7468C82.3503 95.4913 84.4595 95.0698 86.6071 95.0826C92.7943 95.7979 98.8664 95.6319 104.798 93.2813C108.556 91.7867 112.187 90.0493 115.804 88.2864C124.011 84.3007 132.435 80.8898 141.23 78.3859C144.95 77.3256 148.645 76.2781 152.48 75.6777C156.289 75.09 160.009 75.5755 163.742 76.1376C164.534 76.2525 165.327 76.3036 166.132 76.2653C167.551 76.2015 168.369 75.5372 168.433 74.1192C168.561 71.3598 168.638 68.5749 167.845 65.8667C167.717 65.4195 167.219 64.8447 168.075 64.5381C169.66 67.5913 171.105 70.6955 172.051 74.017C172.613 75.9715 172.447 77.926 171.987 79.855C171.501 81.8734 169.788 82.7038 167.538 82.014C165.941 81.5157 164.394 80.8642 162.821 80.3022C162.566 80.2127 162.259 80.2255 161.965 80.1872Z" fill="#CFCBCC"/>
    <path d="M153.259 63.0565C155.343 62.405 157.184 61.332 158.897 59.9906C160.06 59.0708 160.265 57.7678 160.533 56.4775C161.556 56.567 162.106 57.4101 162.758 58.0105C163.934 59.1091 164.982 60.3483 166.068 61.5236C164.982 61.8429 164.304 61.0509 163.55 60.5271C163.115 60.2205 162.745 59.799 162.259 59.5435C161.837 59.3135 161.402 59.1858 161.019 59.6201C160.891 59.8245 160.84 60.0417 160.789 60.2716C160.699 61.9707 159.69 62.8011 158.117 63.1204C154.09 63.9125 150.37 65.4838 146.714 67.3361C144.707 68.3581 142.458 68.8691 140.259 69.4184C139.044 69.7122 137.83 70.006 136.603 70.7981C138.06 71.3985 139.402 71.3218 140.757 71.143C143.02 70.8619 144.963 69.725 146.97 68.7796C151.316 66.7229 155.778 65.075 160.508 64.1424C161.287 63.9891 162.054 63.7592 162.809 63.4909C164.125 63.031 165.135 63.4909 165.864 64.564C166.465 65.4582 167.065 66.378 166.899 67.5533C166.49 67.7193 166.26 67.4255 166.056 67.1828C164.394 65.1516 162.208 64.9089 159.881 65.5221C156.954 66.3013 154.193 67.5405 151.406 68.7285C151.291 68.7796 151.201 68.8563 151.137 69.099C151.738 69.3417 152.326 69.1757 152.914 69.0351C153.86 68.818 154.73 68.3836 155.663 68.1154C156.11 67.9876 156.545 67.8215 157.005 67.7704C158.117 67.6555 158.974 68.1154 159.242 68.984C159.498 69.7889 159.089 70.6064 158.104 71.1302C157.21 71.6029 156.238 71.8711 155.254 72.1139C152.429 72.8165 149.514 72.8676 146.65 73.1997C138.725 74.1067 130.799 75.0904 123.283 77.9903C119.767 79.3444 116.622 81.3756 113.567 83.5345C110.512 85.7062 107.239 87.5075 104.069 89.4876C102.88 90.2413 101.73 91.0333 100.72 92.0553C103.277 91.4549 105.718 90.599 108.185 89.8069C108.671 89.6536 109.183 89.2704 109.668 89.8325C109.234 90.8034 108.211 90.9183 107.406 91.2632C103.008 93.1028 98.4445 94.1631 93.638 93.8821C93.1266 93.8565 92.4108 94.112 92.2062 93.2817C95.6322 91.4676 98.6874 89.1171 101.679 86.6899C113.772 76.8661 127.233 69.8144 142.483 66.2886C146.101 65.4327 149.731 64.3851 153.259 63.0565Z" fill="#E8E8E5"/>
    <path d="M80.2282 95.76C80.4967 95.8749 80.8418 95.7472 81.0336 96.0538C80.7907 96.3348 80.4456 96.4115 80.1004 96.4753C78.886 97.6123 77.3392 97.8678 75.7924 98.2638C73.0696 98.9664 70.2828 98.9537 67.5088 99.1964C67.0998 99.2092 66.7035 99.1836 66.2944 99.0942C65.6425 98.8004 64.9649 98.8004 64.2746 98.9026C59.4809 97.9061 54.6488 97.063 50.2641 94.7124C48.5895 93.8054 46.672 93.601 44.8823 93.0389C42.6324 92.4002 40.4081 92.5024 38.1966 93.205C37.0461 93.5755 35.9084 94.0481 34.6684 94.0992C33.0066 94.1631 31.9583 93.4094 31.4981 91.8253C31.332 91.2632 31.1658 90.6628 31.268 90.088C31.6132 88.1206 31.4854 86.1661 31.0891 84.2243C30.9996 83.394 31.6515 83.1129 32.1884 82.7425C32.5975 82.4742 32.9938 82.1932 33.3901 81.9121C34.1699 82.4614 35.1414 82.3592 35.9979 82.6658C40.4081 84.2754 44.6139 86.345 48.9346 88.159C54.0224 90.2924 58.944 92.8601 64.2619 94.4314C67.1125 95.2745 70.0016 95.8111 72.9801 95.8622C74.9999 96.0155 77.0068 96.0282 79.0266 95.8494C79.4357 95.8111 79.832 95.7855 80.2282 95.76Z" fill="#ECEBE9"/>
    <path d="M160.52 60.0034C160.52 59.799 160.572 59.6074 160.776 59.4924C161.505 58.9687 162.182 59.2497 162.694 59.7607C163.614 60.6933 164.739 61.3064 165.851 61.9452C166.554 62.354 167.04 62.9544 167.577 63.5165C167.743 63.8614 167.909 64.1935 168.088 64.5385C167.717 64.8195 167.935 65.1133 168.05 65.4327C169.149 68.3837 168.906 71.4624 168.804 74.5028C168.753 75.8952 167.717 76.5851 166.298 76.6362C164.279 76.7 162.297 76.3424 160.329 76.0102C157.913 75.5886 155.509 75.6908 153.106 75.9591C146.19 76.7384 139.735 79.2678 133.164 81.3117C128.664 82.7042 124.382 84.7226 120.099 86.7027C114.142 89.462 108.377 92.6685 102.062 94.6103C100.068 95.2235 98.0099 95.6834 95.9262 95.76C93.0883 95.875 90.2248 95.875 87.3869 95.5428C87.0418 95.5045 86.6966 95.5301 86.6327 95.0702C87.6426 94.8147 88.6525 94.5592 89.6496 94.3037C89.803 94.3803 89.9692 94.4314 90.1353 94.3931C91.6566 94.0226 93.1778 93.9332 94.7373 94.1887C96.8977 94.5336 98.9431 93.7544 101.001 93.2817C102.548 92.9368 104.108 92.5791 105.59 92.0042C109.579 90.4457 113.388 88.5295 116.942 86.1278C117.223 85.9362 117.504 85.7318 117.862 85.7957C118.476 85.9107 118.796 85.5785 119.077 85.1186C119.256 84.8248 119.511 84.5565 119.831 84.4799C121.276 84.0966 122.362 83.0747 123.615 82.3848C123.768 82.2954 123.934 82.2954 124.101 82.3337C124.407 82.4231 124.254 83.0491 124.97 82.8575C124.574 82.7553 124.369 82.602 124.203 82.4104C124.318 81.3245 125.149 81.184 125.993 81.0435C126.159 81.0179 126.325 81.069 126.453 81.1968C127.475 82.2187 127.846 82.2826 129.086 81.6439C129.61 81.3756 130.07 81.0051 130.633 80.8135C131.541 80.5069 132.397 80.047 133.407 80.0726C133.701 80.0854 134.046 80.0343 134.238 79.8426C135.976 78.2075 138.405 78.6035 140.387 77.6837C140.578 77.5943 140.86 77.6071 140.962 77.4665C141.601 76.6234 142.445 76.3807 143.455 76.3679C144.465 76.3551 145.091 75.6908 145.526 74.8222C147.494 74.1579 149.552 74.1706 151.585 74.0173C152.876 73.9279 154.218 73.9535 155.445 73.6085C158.846 72.6632 162.246 73.0337 165.659 73.2892C166.298 73.3914 167.04 73.8385 167.283 72.7526C167.321 72.5227 167.372 72.3055 167.475 72.1011C167.909 71.6285 167.73 71.1813 167.423 70.7215C167.321 70.4149 167.308 70.1083 167.347 69.8017C167.411 67.5022 166.81 65.4327 165.097 63.8103C164.355 63.1077 163.371 63.0694 162.502 63.5037C161.39 64.0658 160.201 64.2574 159.025 64.4618C157.951 64.6407 156.864 64.7173 155.867 65.19C155.637 65.2922 155.382 65.3049 155.126 65.2922C154.666 65.2666 154.295 65.075 154.218 64.5896C154.129 64.0147 154.589 63.8869 154.998 63.8103C156.276 63.5931 157.504 63.146 158.769 62.9288C159.472 62.8139 160.035 62.4306 160.533 62.0218C161.287 61.4342 160.674 60.6933 160.52 60.0034Z" fill="#DCDCDC"/>
    <path d="M31.1018 84.1987C32.0478 85.7062 32.035 87.3669 31.7154 89.0148C31.3575 90.8927 31.8688 92.5662 33.0321 93.3966C33.8503 93.9842 34.694 93.7926 35.5121 93.601C37.9282 93.0005 40.2419 91.953 42.837 92.2596C43.5784 92.349 44.3198 92.3874 44.9718 92.7706C44.5883 93.3582 43.9875 93.3327 43.3994 93.371C42.9392 93.3966 42.4662 93.3582 42.0188 93.4988C41.6481 93.6137 41.2902 93.7926 41.2774 94.2397C41.2646 94.674 41.5586 94.9295 41.9293 95.0701C42.4023 95.2489 42.9137 95.3383 43.4122 95.3767C46.4802 95.5683 49.3309 96.6286 52.1432 97.7144C55.8248 99.1324 59.5959 99.6818 63.5076 99.4774C63.9806 99.4518 64.4152 99.3368 64.7732 99.0047C65.2078 98.7364 65.6808 98.7875 66.1538 98.8131C66.5756 98.8131 66.9975 98.8131 67.4193 98.8131C70.1805 99.1324 72.8906 98.8003 75.5879 98.2254C76.406 98.0466 77.2369 97.9572 78.0295 97.6633C78.8732 97.344 79.5891 96.8585 80.0365 96.0409C80.3689 96.0409 80.7012 96.0282 81.0208 96.0282C81.775 97.51 83.0917 98.4298 84.4084 99.3496C80.3561 100.602 76.1887 101.304 71.9958 101.828C65.374 102.658 59.0079 101.291 52.6546 99.6945C48.7173 98.7109 44.8567 97.4334 40.8555 96.718C38.938 96.3731 37.0205 96.5136 35.1414 97.0501C33.9014 96.8074 32.687 97.4973 31.4086 97.1012C30.8717 96.9352 30.4115 96.7691 30.0153 96.3731C28.0722 94.4441 27.7015 91.8891 29.2738 89.4108C30.2326 87.9034 30.6544 86.3193 30.8462 84.6075C30.8973 84.4798 31.0251 84.3393 31.1018 84.1987Z" fill="#DDDDDD"/>
    <path d="M167.564 63.5292C165.966 62.1495 163.87 61.4724 162.412 59.85C162.003 59.3901 161.339 59.4668 160.763 59.4923C161.262 58.5853 161.901 58.943 162.502 59.3263C163.678 60.08 164.586 61.2553 166.068 61.5108C166.567 62.1878 167.283 62.6988 167.564 63.5292Z" fill="#DDDDDD"/>
    <path d="M86.0702 13.452C85.8785 12.2257 86.3898 11.9063 87.6042 11.8169C91.7205 11.4975 95.8239 10.9865 99.9274 10.616C102.625 10.3733 105.347 10.2711 108.058 10.0795C109.477 9.97731 110.895 9.90066 112.289 9.69626C112.941 9.60684 113.26 9.70904 113.35 10.3605C113.516 11.6764 113.695 13.0049 113.848 14.3207C114.257 17.7571 114.654 21.1808 115.037 24.6172C115.331 27.2232 115.587 29.8421 115.868 32.4481C115.958 33.3551 115.932 34.3132 116.175 35.1819C116.443 36.1017 115.983 36.2806 115.306 36.4594C114.245 36.7277 113.145 36.6255 112.072 36.7532C108.888 37.1492 105.654 37.1876 102.471 37.5964C98.3294 38.1329 94.1621 38.3118 90.0331 38.7972C89.33 38.8866 88.9209 38.6567 88.8442 37.8902C88.6269 35.859 88.3584 33.8406 88.1283 31.8094C87.8088 29.1267 87.4764 26.4312 87.1824 23.7485C86.8884 21.1041 86.6327 18.447 86.3642 15.7898C86.2748 15.0233 86.1725 14.2313 86.0702 13.452Z" fill="#7E2C10"/>
    <path d="M146.395 30.302C146.395 30.7747 146.369 31.0302 146.395 31.2729C146.51 32.1416 146.216 32.4226 145.27 32.5887C139.888 33.5596 134.481 34.2494 129.035 34.8115C126.504 35.0798 123.986 35.4503 121.467 35.7824C119.652 36.0251 119.499 35.7952 119.358 34.0195C119.166 31.5284 118.821 29.0501 118.527 26.559C118.233 23.9913 117.901 21.4363 117.62 18.8686C117.326 16.0965 117.121 13.2988 116.763 10.5267C116.661 9.7091 116.968 9.40251 117.632 9.33863C119.882 9.13424 122.132 8.98094 124.382 8.81487C127.501 8.58492 130.607 8.21445 133.727 7.92063C135.734 7.72901 137.766 7.26912 139.837 7.74179C143.902 8.66157 145.091 11.0632 145.347 14.6146C145.666 19.1113 145.858 23.6208 146.139 28.1303C146.216 28.9351 146.51 29.7016 146.395 30.302Z" fill="#7E2C10"/>
    <path d="M89.3172 43.3702C88.857 42.3355 89.5217 42.1694 90.7489 42.0416C94.3538 41.6839 97.9843 41.4668 101.589 41.058C106.102 40.547 110.665 40.4831 115.14 39.6272C116.482 39.3717 116.674 39.6144 116.904 40.943C117.504 44.4305 117.824 47.9564 118.297 51.4694C118.706 54.5609 119.192 57.6524 119.409 60.7695C119.435 61.0633 119.499 61.3443 119.575 61.6254C119.818 62.5707 119.511 62.9412 118.476 63.0561C114.922 63.4649 111.381 64.0398 107.827 64.4741C105.143 64.8063 102.433 65.0107 99.7356 65.2917C97.7414 65.4961 95.76 65.6877 93.7786 65.9943C92.2062 66.2371 91.8227 66.0965 91.631 64.5636C91.2475 61.4593 90.979 58.355 90.6467 55.2508C90.3527 52.6064 90.0331 49.962 89.739 47.3048C89.5984 46.104 89.4706 44.9032 89.3172 43.3702Z" fill="#7E2C10"/>
    <path d="M31.3575 22.5346C31.3575 22.0109 31.3575 21.7682 31.3575 21.5127C31.3703 19.0344 32.3291 17.8591 34.694 17.4375C38.35 16.786 42.0316 16.3644 45.7388 16.1089C48.2315 15.9429 50.6987 15.5341 53.1787 15.1892C54.2908 15.0359 54.7766 15.3425 54.815 16.4666C55.0323 22.0109 55.6587 27.5168 56.3106 33.0227C56.6046 35.5394 56.7452 38.0815 56.9753 40.6237C57.0265 41.2497 56.7964 41.5563 56.1572 41.6074C53.0381 41.8501 49.9189 42.0673 46.7998 42.3739C42.9392 42.7443 39.0914 43.1659 35.2437 43.613C33.454 43.8174 33.2367 43.6002 33.1088 41.8118C32.8532 38.6181 32.4697 35.4372 32.1629 32.2435C31.9583 30.2123 31.7155 28.1811 31.6515 26.1371C31.6004 24.8341 31.1146 23.5822 31.3575 22.5346Z" fill="#7E2C10"/>
    <path d="M60.8487 45.6699C60.6442 44.699 61.2066 44.418 62.4083 44.3413C65.8981 44.1242 69.3752 43.7026 72.8651 43.396C75.23 43.1916 77.6077 43.0255 79.9854 42.8595C81.6089 42.7445 83.2451 42.7317 84.8558 42.5273C85.6484 42.4251 85.9935 42.6678 86.083 43.3449C86.2876 45.0439 86.4282 46.743 86.6071 48.442C87.0034 52.1212 87.4253 55.8003 87.8216 59.4922C88.0261 61.4851 88.1923 63.4779 88.384 65.4708C88.4479 66.1479 88.3073 66.5439 87.4764 66.6078C85.022 66.7994 82.5804 67.0804 80.1388 67.3231C76.8151 67.6553 73.5042 68.0002 70.1806 68.2813C68.2247 68.4473 66.2688 68.5367 64.3258 68.8178C63.7889 68.8944 63.4693 68.6262 63.4054 68.0385C63.1625 65.8029 62.9196 63.5674 62.6512 61.3318C62.1654 57.2438 61.6541 53.1559 61.1683 49.0552C61.0405 48.0205 60.9638 46.9857 60.8487 45.6699Z" fill="#7B2B10"/>
    <path d="M38.4139 70.8492C36.0107 70.8492 36.0746 70.8492 35.8828 69.0607C35.5121 65.4199 34.9497 61.7919 34.7068 58.1383C34.5022 55.0979 34.0293 52.0831 33.8886 49.0427C33.7864 46.8071 33.8247 46.7432 36.1641 46.6538C41.303 46.4749 46.3652 45.5296 51.5041 45.338C53.0764 45.2869 54.636 44.8781 56.2339 44.8525C57.1415 44.8398 57.5123 45.0697 57.6401 46.0917C58.2665 50.9206 58.5861 55.7877 59.3019 60.6038C59.6471 62.9033 59.7877 65.2411 60.1201 67.5533C60.2607 68.5497 59.9794 69.0224 58.7906 69.1118C54.5082 69.4568 50.2257 69.8528 45.9433 70.1083C43.2333 70.2743 40.5488 70.632 38.4139 70.8492Z" fill="#7E2C10"/>
    <path d="M80.1132 92.2848C75.3706 92.3104 71.2543 91.365 67.1253 90.5091C65.9748 90.2664 66.026 89.3594 65.9237 88.5801C65.3229 84.0834 65.0161 79.5484 64.1851 75.0644C64.0445 74.3235 64.1468 73.5698 63.9806 72.816C63.84 72.1773 64.3897 71.8835 65.0161 71.8324C68.1352 71.5769 71.2543 71.347 74.3735 71.0659C78.4002 70.7082 82.4398 70.4016 86.4537 69.8395C86.5304 69.8267 86.6199 69.8268 86.7094 69.814C88.7292 69.6351 89.0871 69.9417 89.1382 71.9985C89.2149 75.09 89.8797 78.1304 90.0586 81.1963C90.1993 83.5724 90.7106 85.9102 90.6722 88.3118C90.6595 89.1422 90.391 89.6404 89.7007 90.0237C87.9238 91.0073 85.9935 91.5694 84.0121 91.9654C82.5804 92.2848 81.1103 92.387 80.1132 92.2848Z" fill="#752B0F"/>
    <path d="M83.5775 20.4271C83.8076 24.0935 84.2039 27.7343 84.7408 31.3623C85.0731 33.5852 85.316 35.8207 85.5845 38.0563C85.6867 38.9633 85.0348 39.321 84.3445 39.2955C81.8645 39.1933 79.4357 39.7298 76.9685 39.8703C73.0951 40.0747 69.2346 40.4963 65.3612 40.8157C64.0318 40.9307 62.6895 41.0328 61.36 41.0967C60.6186 41.135 60.1968 40.7518 60.1201 39.9853C59.7877 36.2934 59.4553 32.5887 59.0974 28.8968C58.7011 24.7067 58.2793 20.5166 57.8318 16.3264C57.7168 15.3045 58.0236 14.7296 59.0974 14.6274C61.7947 14.3847 64.5047 14.1547 67.202 13.8609C69.5669 13.6054 71.9191 13.2349 74.2712 12.9922C76.7256 12.7367 79.18 12.5579 81.6344 12.3663C82.0435 12.3279 82.5293 12.3024 82.5548 12.9284C82.5932 14.4358 83.2707 15.8665 83.0789 17.3995C83.309 18.396 83.3729 19.4179 83.5775 20.4271Z" fill="#7B2B10"/>
    <path d="M129.482 61.5109C127.667 61.7536 125.865 62.0091 124.05 62.2518C123.321 62.3412 122.771 62.0729 122.694 61.3065C122.49 59.4541 122.337 57.589 122.17 55.7239C121.991 54.638 121.94 53.5266 121.672 52.4408C121.416 51.3677 121.391 50.2691 121.416 49.1704C120.969 48.1229 121.16 46.9732 120.918 45.8873C120.726 44.712 120.764 43.5112 120.419 42.3615C120.419 42.106 120.419 41.8633 120.419 41.6078C120.163 41.1095 120.304 40.5602 120.278 40.0492C120.215 39.0273 121.173 39.3594 121.685 39.0911C126.031 38.5801 130.377 38.1202 134.698 37.5582C138.367 37.0727 142.023 36.4979 145.692 35.9102C146.51 35.7825 146.817 35.9613 146.919 36.8044C147.417 40.9435 147.469 45.1336 147.993 49.2471C148.402 52.428 147.609 55.0213 145.628 57.3463C144.759 58.3683 143.544 58.9431 142.202 59.3008C138.942 60.1823 135.606 60.6166 132.269 61.0254C131.349 61.2298 130.403 61.2809 129.482 61.5109Z" fill="#7E2C10"/>
    <path d="M36.6626 75.3968C36.3558 74.4387 36.8544 74.1705 37.8131 74.1066C42.185 73.8128 46.5441 73.4551 50.916 73.1102C53.7795 72.8802 56.643 72.6247 59.5192 72.3564C60.4396 72.267 60.8231 72.5608 60.9254 73.5828C61.2194 76.7254 61.6668 79.868 62.0503 83.0106C62.2549 84.6202 62.4594 86.2299 62.6512 87.8395C62.779 88.9126 62.3188 89.2192 61.3217 88.8359C60.9765 88.6954 60.593 88.6315 60.2479 88.4782C53.6772 85.3739 46.8765 82.8318 40.1269 80.1618C38.0688 79.3443 36.5987 77.9263 36.6626 75.3968Z" fill="#7C2B10"/>
    <path d="M124.19 82.4358C123.346 82.5635 122.95 83.4706 122.03 83.5983C121.365 83.6877 122.196 84.2626 121.991 84.5947C120.585 84.1604 119.972 84.4159 119.077 85.7828C118.962 85.9489 118.757 86.2044 118.629 86.1788C116.635 85.8722 115.536 87.5585 114.066 88.3122C110.525 90.1262 107.035 92.0041 103.174 93.09C101.065 93.6904 98.8663 93.9331 96.7699 94.6613C96.0924 94.8912 95.1847 94.6996 94.4305 94.508C92.986 94.1375 91.6182 94.4058 90.2376 94.7124C89.8669 94.789 89.6751 94.674 89.624 94.3036C90.4677 93.9586 91.3114 93.6137 92.1423 93.2688C93.9831 93.8437 95.8878 93.6393 97.7159 93.4604C101.589 93.0516 105.309 91.9402 108.825 90.2284C109.08 90.1007 109.31 89.909 109.54 89.743C110.09 88.721 111.241 88.5549 112.135 88.095C114.718 86.7664 117.095 85.1057 119.499 83.5089C122.324 81.6182 125.353 80.2641 128.588 79.306C132.602 78.1052 136.552 76.6872 140.63 75.7163C141.857 75.4225 143.097 75.2564 144.324 74.937C144.695 74.8476 145.078 74.7965 145.385 75.1286C145.513 76.0356 145.078 76.4828 144.209 76.4828C143.902 76.4828 143.634 76.4572 143.442 76.751C143.135 77.2492 142.777 77.2109 142.445 76.7894C142.227 76.5083 141.959 76.4828 141.933 76.8277C141.857 77.7602 141.115 77.7602 140.514 77.9519C139.479 78.284 138.456 78.6161 137.408 78.9227C137.101 79.0122 136.807 79.2293 136.462 78.9483C136.015 78.5778 135.861 78.7056 135.631 79.2804C135.261 80.1747 134.238 80.328 133.407 80.3918C131.988 80.5196 130.761 81.0178 129.572 81.7332C128.728 82.2442 127.872 82.4358 126.836 82.3847C125.75 82.3336 126.069 81.8737 126.274 81.2988C125.379 81.3627 124.612 81.5927 124.19 82.4358Z" fill="#DCDCDC"/>
    <path d="M93.1906 73.1996C93.459 72.2159 93.8425 71.2962 95.0186 71.1045C97.8053 70.6446 100.605 70.2231 103.392 69.7376C103.852 69.661 104.12 69.776 104.35 70.1081C104.619 70.5041 104.517 70.8746 104.235 71.2578C103.392 72.4203 102.113 72.6503 100.822 72.8675C99.6717 73.0591 98.5212 73.2252 97.3707 73.4423C96.5909 73.5828 96.0668 73.8511 96.4119 74.8731C96.7699 75.9079 96.706 77.0193 96.706 78.1051C96.706 78.7822 96.3992 79.3187 95.8495 79.5104C95.1975 79.7403 94.9035 79.0888 94.6734 78.6289C93.8041 76.9426 93.6124 75.0519 93.1906 73.1996Z" fill="#9D3716"/>
    <path d="M79.0394 95.8364C77.0196 96.2197 75.0126 96.2069 72.9929 95.8492C74.9998 95.8364 77.0196 95.8364 79.0394 95.8364Z" fill="#DEDEDE"/>
    <path d="M121.672 39.0782C120.074 39.3337 120.432 40.5601 120.406 41.5949C119.626 39.2954 120.099 38.9505 121.672 39.0782Z" fill="#752B0F"/>
    <path d="M120.918 45.8872C121.314 46.9475 121.301 48.0589 121.416 49.1703C120.649 48.1611 120.994 46.9986 120.918 45.8872Z" fill="#752B0F"/>
    <path d="M120.406 42.3613C120.969 43.4855 120.918 44.6863 120.905 45.8872C120.56 44.7374 120.419 43.5622 120.406 42.3613Z" fill="#752B0F"/>
    <path d="M121.672 52.4404C122.196 53.4752 122.196 54.5994 122.17 55.7235C121.825 54.6505 121.659 53.5646 121.672 52.4404Z" fill="#752B0F"/>
    <path d="M83.5775 20.427C83.194 19.4562 83.0534 18.4469 83.0789 17.3994C83.5519 18.3575 83.6031 19.3795 83.5775 20.427Z" fill="#752B0F"/>
    <path d="M129.482 61.5105C130.365 61.0762 131.298 60.9867 132.256 61.0123C131.387 61.4466 130.441 61.5361 129.482 61.5105Z" fill="#752B0F"/>
    <path d="M145.385 75.1285C142.815 75.4478 140.31 76.0866 137.83 76.7892C134.136 77.8495 130.518 79.1397 126.836 80.2256C123.653 81.1709 120.943 82.9722 118.233 84.7606C115.446 86.6002 112.608 88.3504 109.566 89.7556C107.227 90.5093 104.875 91.2502 102.535 92.0039C102.024 92.17 101.5 92.3361 101.001 92.5277C100.682 92.6555 100.362 92.8598 100.119 92.4638C99.8635 92.0423 100.106 91.774 100.451 91.5313C102.369 90.1772 104.299 88.8614 106.345 87.7116C109.298 86.0509 112.123 84.173 114.897 82.2312C118.808 79.4974 123.027 77.4407 127.629 76.1377C132.985 74.6175 138.495 73.9404 143.979 73.1101C147.571 72.5735 151.24 72.7524 154.781 71.8454C155.752 71.6026 156.724 71.3344 157.657 70.9767C158.462 70.6701 159.191 70.1591 158.961 69.1116C158.782 68.2812 157.759 67.8213 156.673 68.1407C155.382 68.5111 154.142 69.0094 152.85 69.3798C151.994 69.6353 150.818 70.0441 150.396 69.1243C150.191 68.6644 151.547 68.3323 152.25 68.0129C154.551 67.0037 156.89 66.0584 159.293 65.3302C161.211 64.7426 163.115 64.6404 164.956 65.739C165.749 66.2117 166.132 67.0293 166.81 67.5658C167.513 68.1662 167.487 69.0221 167.564 69.8397C167.564 70.1719 167.564 70.504 167.577 70.8489C167.884 71.2705 167.884 71.6921 167.577 72.1136L167.564 72.8673C167.219 73.4422 166.759 73.7616 166.056 73.6338C164.598 73.6466 163.141 73.5955 161.696 73.3911C158.999 73.0079 156.43 74.0298 153.771 74.2342C152.109 74.362 150.46 74.4897 148.798 74.643C147.66 74.7452 146.497 74.758 145.385 75.1285Z" fill="#F1F1F1"/>
    <path d="M167.577 69.8399L166.823 67.566C166.503 66.7484 166.247 65.9053 165.838 65.1388C165.122 63.7591 164.304 63.4014 162.885 63.823C160.162 64.6278 157.376 65.1388 154.666 66.0075C151.227 67.1189 147.967 68.6391 144.72 70.1976C142.1 71.4623 139.428 71.9222 136.577 71.3601C136.322 71.309 136.028 71.309 135.964 71.028C135.912 70.7597 136.168 70.5809 136.385 70.4531C137.434 69.8144 138.61 69.4439 139.786 69.1756C143.186 68.3964 146.472 67.3233 149.54 65.6242C151.904 64.3084 154.499 63.6825 157.107 63.0565C157.273 63.0182 157.44 63.0054 157.606 62.9671C159.217 62.6222 160.559 61.9962 160.533 60.0161C161.224 60.3994 161.121 61.1658 161.39 61.7535C161.53 62.0473 161.326 62.1367 161.083 62.29C159.293 63.3887 157.235 63.5292 155.279 64.0402C154.921 64.1424 154.295 63.9124 154.423 64.615C154.525 65.1644 155.1 65.1899 155.445 64.9983C157.695 63.8102 160.405 64.5128 162.63 63.0948C163.755 62.3794 166.004 63.7208 166.567 65.2027C166.976 66.3013 167.296 67.4255 167.692 68.5241C167.871 69.0096 167.807 69.4183 167.577 69.8399Z" fill="#DDDDDD"/>
    <path d="M64.9138 99.0812C64.9649 99.7071 64.607 99.8221 64.0573 99.8477C59.8132 100.001 55.7098 99.5411 51.6958 97.9059C48.7173 96.6795 45.5854 95.7214 42.3001 95.5809C41.303 95.5426 40.7277 94.9932 40.7661 94.1373C40.8044 93.3325 41.6225 93.077 42.3768 93.0515C43.246 93.0131 44.1409 93.1026 44.9846 92.7832C47.6179 93.1537 50.0723 94.0862 52.4117 95.2615C56.1956 97.165 60.3885 97.561 64.4025 98.583C64.5175 98.8001 65.0672 98.583 64.9138 99.0812Z" fill="#CFCCCD"/>
    <path d="M80.0493 96.0664C79.947 97.3822 78.7837 97.7144 77.9017 98.0082C75.2555 98.8896 72.456 99.0557 69.6948 99.2601C69.0045 99.3112 68.1224 99.3112 67.4321 98.8385C70.8453 98.7491 74.2073 98.3659 77.5437 97.5611C78.5536 97.2928 79.2439 96.6029 80.0493 96.0664Z" fill="#DEDEDE"/>
    <path d="M64.9138 99.0814C64.7476 98.9153 64.5814 98.7493 64.4025 98.5704C65.0033 98.5704 65.6552 98.251 66.1666 98.8259C65.7831 99.0686 65.3612 99.1069 64.9138 99.0814Z" fill="#DEDEDE"/>
    <path d="M125.686 82.9468C125.059 83.3939 124.42 82.9979 123.794 83.6366C124.331 82.2825 124.331 82.2825 125.686 82.9468Z" fill="#DCDCDC"/>
    <path d="M166.068 73.621L167.577 72.8545C167.347 73.6465 166.989 74.1831 166.068 73.621Z" fill="#DDDDDD"/>
    <path d="M167.59 72.1011C167.59 71.6796 167.59 71.258 167.59 70.8364C168.382 71.258 168.382 71.6796 167.59 72.1011Z" fill="#DDDDDD"/>
    <path d="M111.087 29.0371C111.266 30.9406 110.959 32.6396 109.336 33.8915C108.122 34.8369 106.677 35.1179 105.232 35.2584C102.407 35.5395 99.5694 35.7567 96.7315 35.8078C95.8367 35.8205 94.9802 35.6161 94.1237 35.4628C93.7147 35.3862 93.0883 35.3351 93.0883 34.7219C93.0883 34.1981 93.638 34.147 94.0215 34.0448C95.8367 33.5594 97.6775 33.2145 99.5567 33.0229C101.922 32.7801 104.286 32.6013 106.639 32.2564C107.879 32.0775 108.531 31.1066 108.556 29.8675C108.646 26.0862 107.815 22.407 107.444 18.6768C107.252 16.6839 106.945 14.6911 107.06 12.6854C107.086 12.2128 107.112 11.5357 107.661 11.4463C108.198 11.3568 108.262 12.0595 108.467 12.4299C109.515 14.3461 109.617 16.5306 109.962 18.6129C110.525 22.0621 110.985 25.5368 111.087 29.0371Z" fill="#9D3716"/>
    <path d="M93.8681 13.3623C94.4561 13.3623 95.0441 13.3623 95.6322 13.3623C96.0668 13.3623 96.5014 13.3751 96.6421 13.8861C96.7955 14.4226 96.6676 14.8953 96.1819 15.2146C95.5427 15.6234 94.878 15.9811 94.0726 15.8789C91.2603 15.5212 90.5828 16.5688 91.0302 19.7241C91.1708 20.7206 91.3242 21.7298 90.8768 22.6751C90.6595 23.1222 90.3399 23.6077 89.803 23.6332C89.2661 23.6588 89.0615 23.0839 88.8954 22.7134C87.9366 20.4395 87.6809 18.0506 88.7292 15.7895C89.7135 13.7072 91.5799 12.9535 93.8681 13.3623Z" fill="#9D3716"/>
    <path d="M142.611 23.7738C142.662 24.8341 142.624 26.1755 142.317 27.4913C141.614 30.5189 139.121 32.4607 135.81 32.5245C132.883 32.5756 129.981 32.9717 127.079 33.2655C126.299 33.3421 125.596 33.0228 124.855 32.9333C124.663 32.9078 124.356 32.6012 124.356 32.4351C124.356 32.0263 124.727 31.7581 125.059 31.6303C126.069 31.2471 127.092 30.8255 128.153 30.5956C130.569 30.0973 133.036 29.8674 135.491 29.7907C139.198 29.663 139.773 28.3089 140.042 25.1535C140.259 22.6496 140.08 20.1202 140.08 17.6036C140.08 17.3098 140.067 17.016 140.093 16.7222C140.131 16.3006 140.182 15.8024 140.668 15.7129C141.205 15.6107 141.345 16.1217 141.499 16.505C142.189 18.2296 142.47 20.0308 142.598 21.8704C142.637 22.3942 142.611 22.9435 142.611 23.7738Z" fill="#9E3716"/>
    <path d="M127.028 10.3475C127.91 10.3475 128.792 10.3347 129.674 10.3475C129.955 10.3475 130.288 10.2836 130.428 10.6413C130.569 10.999 130.403 11.28 130.173 11.5483C129.24 12.6342 127.859 12.5575 126.632 12.8513C126.197 12.9535 125.711 12.8641 125.251 12.8769C123.704 12.9024 122.656 13.6817 122.477 15.1891C122.349 16.3005 122.324 17.4247 122.579 18.5617C122.963 20.3501 123.334 22.1386 123.436 23.9782C123.474 24.7191 123.219 25.3706 122.912 26.0221C122.746 26.3543 122.477 26.5203 122.094 26.482C121.736 26.4437 121.595 26.1626 121.518 25.8944C120.611 22.8667 119.69 19.8391 119.665 16.6327C119.639 14.8059 120.304 13.1962 121.429 11.791C122.209 10.8329 123.308 10.4369 124.523 10.3858C125.353 10.3091 126.184 10.3475 127.028 10.3475Z" fill="#9D3716"/>
    <path d="M101.896 63.2864C100.554 63.2864 99.2115 63.3503 97.8948 63.0437C97.5624 62.9671 97.1534 63.0182 97.0639 62.6221C96.9744 62.2133 97.2173 61.9451 97.6136 61.7535C98.8919 61.1786 100.209 60.8592 101.602 60.7442C104.338 60.5398 107.073 60.3482 109.668 59.2624C111.893 58.3298 113.618 56.1709 112.941 53.271C112.212 50.1923 111.675 47.0497 111.816 43.8432C111.829 43.6388 111.803 43.4217 111.829 43.2173C111.867 42.7063 111.969 42.0675 112.493 41.9909C113.081 41.9015 113.427 42.4635 113.567 43.0129C113.836 44.1115 114.194 45.1973 114.309 46.3088C114.539 48.4677 114.973 50.6011 115.421 52.7089C116.367 57.244 114.475 59.7734 110.576 61.779C107.853 63.197 104.875 63.312 101.896 63.2864Z" fill="#9D3716"/>
    <path d="M97.294 42.3739C97.946 42.425 98.6235 42.2461 99.2754 42.5144C99.774 42.706 100.439 42.7827 100.362 43.4981C100.285 44.1368 99.7484 44.5456 99.1348 44.5839C98.3423 44.6478 97.5625 44.7755 96.7827 44.865C95.6833 44.9799 95.1081 45.4143 95.172 46.6023C95.2359 47.7776 95.1848 48.9529 95.1848 50.1282C95.1848 50.9074 94.9419 51.5845 94.1365 51.8017C93.344 52.0188 93.0883 51.2396 92.9349 50.7797C92.2957 48.774 91.9634 46.6918 92.8838 44.6989C93.7275 42.8593 95.2487 42.0673 97.294 42.3739Z" fill="#9D3716"/>
    <path d="M38.5801 41.0965C37.4935 41.1093 36.3942 41.2242 35.3715 40.7005C35.1158 40.5727 34.7707 40.4961 34.7707 40.1384C34.7707 39.7679 35.1414 39.7168 35.3971 39.6274C37.289 38.9375 39.2832 38.6948 41.2518 38.3499C44.1281 37.8389 47.0683 37.8389 49.9701 37.5834C51.7342 37.4301 52.7569 36.3826 52.808 34.6325C52.8719 32.2308 52.2455 29.9186 51.9004 27.568C51.4657 24.5148 51.5552 21.4744 51.5552 18.4213C51.5552 18.1402 51.6958 17.8592 51.8237 17.5909C51.9515 17.3482 52.0026 16.9394 52.3734 17.0033C52.7696 17.0671 52.9358 17.4248 53.0509 17.8209C53.4855 19.2644 53.5878 20.7718 53.8051 22.2537C54.2909 25.6773 54.7638 29.0882 55.1857 32.5246C55.4669 34.8241 55.7226 37.1363 53.6261 38.8864C52.4756 39.8446 51.0695 40.0745 49.6761 40.2917C48.3977 40.4833 47.0938 40.5727 45.8027 40.5727C43.3867 40.5855 41.009 41.2242 38.5801 41.0965Z" fill="#9E3716"/>
    <path d="M32.3674 23.838C32.3163 20.8103 34.2593 18.5364 37.3529 18.3704C38.2989 18.3193 39.2576 18.1149 40.2164 18.1787C40.5999 18.2043 40.9834 18.3065 41.1368 18.7153C41.2902 19.1241 41.0473 19.4179 40.7916 19.7117C39.8968 20.7209 38.6185 20.6954 37.4552 20.9125C35.9212 21.1936 35.167 21.9345 35.1414 23.5058C35.1286 24.4639 35.1414 25.4348 35.1414 26.3929C35.1414 27.1594 34.9241 27.9387 34.1826 28.1431C33.3134 28.3858 33.1088 27.4149 32.8787 26.8911C32.4569 25.9458 32.3674 24.8855 32.3674 23.838Z" fill="#9D3716"/>
    <path d="M73.3508 66.8123C71.8552 66.6846 70.3339 67.0423 68.8383 66.5951C68.4676 66.4802 68.0329 66.4929 67.9818 66.0075C67.9179 65.4454 68.3525 65.1644 68.7872 65.0111C70.2828 64.4745 71.8552 64.0402 73.4275 64.0785C75.5112 64.1296 77.5693 63.7719 79.6786 63.9891C82.2097 64.2446 83.6797 62.7116 83.8076 60.0289C83.9098 57.9339 83.7309 55.8516 83.2068 53.8076C82.9767 52.9261 83.0917 52.0575 83.0662 51.1888C83.0534 50.7672 83.2962 50.4223 83.667 50.3073C84.1016 50.1668 84.2294 50.6395 84.3701 50.895C85.3544 52.6706 86.0319 54.5996 86.262 56.5797C86.556 59.2369 86.6455 61.9579 85.022 64.3468C84.1527 65.6243 82.8744 66.5185 81.3788 66.5185C78.6942 66.5057 76.0353 67.0039 73.3508 66.8123Z" fill="#9D3716"/>
    <path d="M63.3926 52.3765C63.4054 49.5788 64.8115 46.8067 67.9051 46.2318C69.8098 45.8741 71.7401 46.1296 73.6193 45.6698C73.9644 45.5803 74.2968 45.7464 74.4246 46.1169C74.5652 46.5129 74.463 46.8834 74.1306 47.1389C73.2613 47.8159 72.3409 48.3652 71.2032 48.4419C70.2956 48.5057 69.3752 48.5696 68.4676 48.7357C66.4861 49.0934 65.7319 50.8052 66.2688 53.424C66.614 55.0975 67.3043 56.6944 67.1892 58.4445C67.1764 58.6489 67.2276 58.8789 67.1637 59.0705C66.9336 59.7987 66.9719 60.8717 65.9748 60.9101C65.1695 60.9356 65.1567 59.9519 64.9905 59.3515C64.3002 56.9371 63.4565 54.561 63.3926 52.3765Z" fill="#9D3716"/>
    <path d="M44.0514 69.0479C42.8242 69.1884 41.6737 69.0096 40.5359 68.7157C40.1397 68.6135 39.6283 68.4091 39.6155 67.962C39.59 67.4766 40.1013 67.3488 40.5104 67.2466C43.4889 66.5823 46.4674 65.9947 49.5354 66.033C51.0566 66.0586 52.3989 65.5348 53.6005 64.615C55.4925 63.1459 55.6075 61.0636 55.2496 59.0197C54.6871 55.8132 54.8916 52.594 54.8277 49.3875C54.8149 49.0298 54.8789 48.6977 55.2751 48.5827C55.7226 48.4549 55.9654 48.7232 56.17 49.0681C56.758 50.0646 56.8603 51.2143 57.052 52.3129C57.3333 53.9098 57.5634 55.5322 57.5634 57.1546C57.5634 58.6875 58.113 60.1055 57.9341 61.7152C57.5634 65.1771 54.8533 67.4255 52.4756 68.2686C51.21 68.7157 49.8806 68.9329 48.5255 68.8052C47.0043 68.6902 45.5342 69.3034 44.0514 69.0479Z" fill="#9D3716"/>
    <path d="M40.2036 46.922C41.0601 46.7687 41.8654 47.0497 42.6963 47.1519C43.131 47.203 43.3994 47.3819 43.4633 47.8418C43.5145 48.2506 43.3866 48.5444 43.0287 48.7999C42.3384 49.2853 41.597 49.4386 40.7788 49.4386C38.5545 49.4386 38.1966 49.8219 38.171 52.0958C38.1582 53.3477 38.2861 54.5996 37.9281 55.8388C37.762 56.4137 37.4935 56.8863 36.8799 56.9374C36.2024 57.0013 35.8956 56.4264 35.7805 55.9154C35.2181 53.5138 34.9752 51.061 36.2791 48.8382C37.0844 47.433 38.4523 46.6282 40.2036 46.922Z" fill="#9D3716"/>
    <path d="M65.668 78.3607C65.7191 75.844 67.9562 73.5957 70.7302 73.4041C72.5071 73.2763 74.3223 73.1741 76.112 73.5957C76.5594 73.6979 76.9173 73.7618 77.0068 74.2855C77.0835 74.771 76.8662 75.0648 76.4699 75.3203C75.8052 75.7546 75.1021 75.8824 74.3223 75.8951C72.9929 75.9079 71.6378 75.7419 70.3339 76.1506C69.2729 76.4828 68.5698 77.0577 68.6849 78.3096C68.7616 79.1399 68.7104 79.9703 68.9022 80.8007C69.1962 82.0398 68.7744 83.2279 68.1735 84.2882C67.6622 85.1952 67.2276 84.4543 67.023 84.0327C66.4222 82.8319 66.0259 81.5416 65.9365 80.2003C65.8981 79.5487 65.7575 78.8972 65.668 78.3607Z" fill="#9D3716"/>
    <path d="M88.6269 85.6038C88.6269 86.3192 88.6141 87.0346 88.6269 87.7372C88.6397 88.2993 88.4479 88.7592 87.8983 88.9253C87.3486 89.0914 87.0673 88.6059 86.7861 88.261C86.377 87.7628 86.1725 87.1368 86.1214 86.5236C85.9168 84.0709 85.7123 81.6181 85.61 79.1654C85.5589 77.9518 85.4822 76.7509 85.1882 75.5756C85.0092 74.8603 84.8814 74.0171 85.7251 73.7488C86.4665 73.5061 86.9906 74.1576 87.4125 74.7581C88.1156 75.7673 88.3329 76.9553 88.3201 78.0923C88.3073 80.5961 88.6397 83.0872 88.6269 85.6038Z" fill="#9D3716"/>
    <path d="M62.1398 28.245C62.3827 28.1683 62.6895 28.1556 62.8429 28.0023C64.1979 26.5076 66.0899 26.4054 67.854 25.9838C70.4746 25.3579 72.5071 23.991 73.6448 21.4233C74.3351 19.852 74.8081 19.7753 75.9714 21.04C77.4926 22.7007 78.0551 24.8341 78.5025 26.9547C78.7582 28.1556 78.9244 29.3692 78.5792 30.6722C78.0423 32.6651 76.5722 33.1122 74.8848 33.2527C71.4717 33.5593 68.0585 33.8787 64.6453 34.0192C61.8586 34.1342 60.6058 32.0008 61.7947 29.4458C61.9736 29.0498 62.1782 28.6793 62.1398 28.245Z" fill="#752B0F"/>
    <path d="M82.5676 32.0138C83.0022 35.8974 80.3305 37.4176 77.352 37.7625C73.8749 38.1713 70.3595 38.3246 66.8697 38.5673C65.9493 38.6312 65.0544 38.3373 64.1596 38.1074C63.7249 38.0052 63.2903 37.8136 63.252 37.3665C63.2008 36.7788 63.7889 36.7533 64.1596 36.7022C67.5344 36.1784 70.8581 35.348 74.3096 35.2969C75.7796 35.2714 77.2114 35.0926 78.6303 34.6454C79.6402 34.3388 79.9981 33.6746 80.0621 32.6909C80.1899 30.6597 79.7169 28.7052 79.4101 26.7251C78.9883 24.0551 78.9243 21.398 79.3462 18.7536C79.4485 18.0893 79.7041 17.1057 80.4583 17.0929C81.2381 17.0801 81.0975 18.0766 81.1614 18.6386C81.4171 20.6187 81.6344 22.6116 81.7367 24.6045C81.8517 27.1211 82.7466 29.5355 82.5676 32.0138Z" fill="#9D3716"/>
    <path d="M62.1398 28.2451C61.4623 28.6538 61.1427 28.2578 60.8998 27.6957C59.7621 25.0386 59.6343 22.2409 59.9411 19.456C60.184 17.2204 61.9608 15.9557 64.2235 15.8663C65.6169 15.8152 66.9591 16.109 68.3397 16.1473C68.6977 16.1601 69.0172 16.2495 69.1451 16.62C69.2857 17.0288 69.1579 17.3737 68.8383 17.6292C68.2375 18.1147 67.5216 18.3318 66.7546 18.4085C66.3839 18.4468 66.0004 18.4596 65.6297 18.4085C62.6384 18.038 62.2549 19.2772 62.5361 22.407C62.7023 24.3871 63.367 26.3672 62.1398 28.2451Z" fill="#9D3716"/>
    <path d="M143.608 50.1666C143.173 50.3582 142.982 50.767 142.905 51.163C142.496 53.207 140.911 53.7307 139.236 53.6541C136.488 53.5391 133.957 54.2162 131.426 55.1104C130.812 55.3276 130.134 55.3403 129.649 54.8549C128.92 54.1012 128.741 53.092 129.061 52.1594C129.789 50.0771 130.978 48.4036 133.356 47.8927C135.44 47.4328 135.849 46.8451 136.053 44.8012C136.181 43.4854 136.488 42.1823 137.919 41.6458C139.223 41.1603 141.742 41.9396 142.509 42.9871C142.905 43.5109 143.237 44.0858 143.595 44.6351C144.273 46.4746 144.26 48.327 143.608 50.1666Z" fill="#752B0F"/>
    <path d="M143.608 50.1666C143.608 48.3142 143.608 46.4747 143.608 44.6223C143.608 43.4854 143.621 42.3484 143.621 41.2242C143.621 40.7132 143.825 40.2533 144.349 40.2022C144.822 40.1511 145.014 40.5983 145.129 41.0326C146.216 44.9545 146.318 48.9785 146.075 52.9898C145.896 55.9535 143.531 57.2821 141.103 58.2147C136.897 59.8243 132.461 59.5177 128.064 59.4921C127.591 59.4921 126.99 59.3772 126.913 58.9173C126.824 58.4574 127.373 58.1636 127.782 57.972C129.802 57.0266 131.975 56.95 134.136 56.72C136.04 56.5156 137.958 56.4901 139.786 55.7747C143.34 54.4078 143.634 54.0245 143.608 50.1666Z" fill="#9E3716"/>
    <path d="M130.595 39.6148C131.31 39.6148 132.026 39.5509 132.729 39.6403C133.202 39.7042 133.727 39.9086 133.765 40.5601C133.79 41.1605 133.343 41.3522 132.908 41.5055C131.924 41.8632 130.927 42.2336 129.853 42.0931C129.125 42.0037 128.434 42.2081 127.744 42.3997C126.747 42.668 126.159 43.3706 126.223 44.4309C126.287 45.4656 126.312 46.5387 126.593 47.5352C126.849 48.4677 126.478 49.2725 126.427 50.1284C126.402 50.4989 126.057 50.7033 125.711 50.7544C125.238 50.831 124.88 50.5756 124.714 50.154C124.42 49.413 124.139 48.6593 123.96 47.8929C123.73 46.922 123.487 45.9255 123.461 44.9419C123.398 41.6077 125.085 40.1641 128.831 39.5892C129.406 39.4998 130.007 39.5765 130.595 39.5765V39.6148Z" fill="#9D3716"/>
    <path d="M52.6674 75.6393C53.6389 75.7288 54.9044 75.3583 56.0549 75.7926C58.0364 76.5336 58.6372 78.2709 58.8417 80.1744C58.944 81.0814 58.8417 82.0139 58.8673 82.9337C58.8801 83.6747 58.4966 84.1857 57.8829 84.3773C57.2182 84.5817 56.9881 83.9302 56.7197 83.4575C56.2595 82.6271 56.1572 81.7074 56.0933 80.8003C55.9399 78.3348 54.9428 77.4789 52.5523 77.9643C51.095 78.2709 49.6377 78.0665 48.1804 78.1432C47.6179 78.1687 47.1961 77.9132 47.0427 77.3512C46.8765 76.8018 47.26 76.5463 47.6691 76.2653C48.2827 75.8565 48.9218 75.6266 49.6633 75.6266C50.5837 75.6266 51.5041 75.6393 52.6674 75.6393Z" fill="#9C3715"/>
    <path d="M85.38 123.66C85.7123 128.361 82.1714 132.436 77.4799 132.781C72.7756 133.113 68.6977 129.588 68.3526 124.887C68.0202 120.185 71.5484 116.11 76.2527 115.765C80.9569 115.433 85.0476 118.959 85.38 123.66Z" fill="#432918"/>
    <path d="M75.5623 120.722C75.6646 122.217 74.5397 123.52 73.044 123.635C71.5484 123.737 70.2445 122.613 70.1294 121.118C70.0271 119.61 71.1521 118.307 72.6477 118.205C74.1562 118.09 75.4601 119.227 75.5623 120.722Z" fill="white"/>
    <path d="M75.6646 124.874C75.703 125.436 75.2811 125.934 74.7186 125.973C74.1562 126.011 73.6704 125.589 73.6321 125.027C73.5937 124.465 74.0156 123.967 74.578 123.929C75.1405 123.89 75.6263 124.312 75.6646 124.874Z" fill="white"/>
    <path d="M77.352 122.025C77.3776 122.383 77.1091 122.689 76.764 122.715C76.406 122.74 76.0992 122.472 76.0737 122.127C76.0481 121.769 76.3166 121.463 76.6745 121.437C77.0196 121.399 77.3264 121.667 77.352 122.025Z" fill="white"/>
    <path d="M80.42 132.564C80.4967 133.611 77.2242 134.697 73.1079 134.991C68.9917 135.285 65.6041 134.672 65.5274 133.624C65.4507 132.577 68.7233 131.491 72.8395 131.197C76.9557 130.916 80.3561 131.516 80.42 132.564Z" fill="#ED6F81"/>
    <path d="M130.377 120.428C130.71 125.129 127.181 129.205 122.477 129.549C117.773 129.882 113.695 126.356 113.35 121.655C113.018 116.954 116.546 112.878 121.25 112.533C125.941 112.189 130.032 115.727 130.377 120.428Z" fill="#432918"/>
    <path d="M120.56 117.49C120.662 118.985 119.537 120.288 118.041 120.403C116.546 120.518 115.242 119.381 115.127 117.886C115.025 116.379 116.149 115.076 117.645 114.973C119.141 114.858 120.445 115.983 120.56 117.49Z" fill="white"/>
    <path d="M120.662 121.642C120.7 122.204 120.278 122.702 119.716 122.74C119.154 122.779 118.668 122.357 118.617 121.795C118.578 121.233 119 120.735 119.563 120.696C120.138 120.645 120.624 121.08 120.662 121.642Z" fill="white"/>
    <path d="M122.337 118.78C122.362 119.138 122.094 119.445 121.749 119.47C121.403 119.496 121.084 119.227 121.058 118.882C121.033 118.538 121.301 118.218 121.659 118.193C122.004 118.167 122.311 118.435 122.337 118.78Z" fill="white"/>
    <path d="M134.084 128.706C134.161 129.754 130.889 130.84 126.772 131.134C122.656 131.428 119.269 130.814 119.192 129.767C119.115 128.719 122.388 127.633 126.504 127.34C130.62 127.059 134.008 127.659 134.084 128.706Z" fill="#ED6F81"/>
    <path d="M118.208 106.644C118.208 106.644 124.829 103.604 130.211 108.854" stroke="#432918" stroke-width="0.7177" stroke-miterlimit="10" stroke-linecap="round" stroke-linejoin="round"/>
    <path d="M78.0935 109.531C78.0935 109.531 71.101 107.475 66.5245 113.428" stroke="#432918" stroke-width="0.7177" stroke-miterlimit="10" stroke-linecap="round" stroke-linejoin="round"/>
    <path d="M100.324 138.441C97.9843 138.607 96.3225 137.163 95.9134 134.57C95.2487 130.508 95.5299 128.527 96.8082 128.093C97.2812 127.927 97.9332 127.825 98.8536 127.761C99.3265 127.723 99.8251 127.71 100.273 127.684C100.63 127.672 100.963 127.659 101.231 127.633C103.443 127.48 103.571 129.013 103.66 130.15C103.673 130.38 103.698 130.623 103.724 130.865L103.775 131.274C104.005 133.101 104.338 135.605 103.059 137.163C102.42 137.93 101.513 138.351 100.324 138.441Z" fill="#ED6F81"/>
    <path d="M98.9047 128.515C99.774 128.451 100.669 128.438 101.282 128.4H101.295C103.034 128.272 102.765 129.383 102.957 130.967C103.251 133.343 104.005 137.419 100.285 137.687C98.2527 137.827 97.0128 136.537 96.6804 134.455C96.5398 133.573 95.7983 129.256 97.0639 128.821C97.5241 128.655 98.2016 128.566 98.9047 128.515ZM98.7896 126.994C97.8053 127.071 97.0895 127.186 96.5526 127.378C94.3922 128.119 94.5967 131.3 95.1464 134.634C95.6449 137.687 97.6391 139.412 100.388 139.22C101.781 139.118 102.88 138.594 103.647 137.661C105.13 135.847 104.785 133.152 104.529 131.197L104.478 130.789C104.453 130.546 104.427 130.316 104.414 130.099C104.338 129.077 104.146 126.662 101.18 126.879C100.899 126.905 100.579 126.918 100.234 126.931C99.7868 126.931 99.2754 126.956 98.7896 126.994Z" fill="#432918"/>
    <path d="M93.8553 127.787C93.9448 128.017 105.156 127.225 105.207 126.995" stroke="#432918" stroke-width="0.7177" stroke-miterlimit="10" stroke-linecap="round" stroke-linejoin="round"/>
    <path d="M99.6334 128.859L99.9402 133.075" stroke="#432918" stroke-width="0.7177" stroke-miterlimit="10" stroke-linecap="round" stroke-linejoin="round"/>
    <path d="M186.765 150.64C186.765 150.64 185.358 114.743 162.208 118.946" stroke="#432918" stroke-width="4.3969" stroke-miterlimit="10" stroke-linecap="round" stroke-linejoin="round"/>
    <path d="M186.419 152.109L183.492 156.58" stroke="#432918" stroke-width="4.3969" stroke-miterlimit="10" stroke-linecap="round" stroke-linejoin="round"/>
    <path d="M186.419 152.109L187.8 157.27" stroke="#432918" stroke-width="4.3969" stroke-miterlimit="10" stroke-linecap="round" stroke-linejoin="round"/>
    <path d="M186.419 152.109L191.188 154.511" stroke="#432918" stroke-width="4.3969" stroke-miterlimit="10" stroke-linecap="round" stroke-linejoin="round"/>
    </g>
    <defs>
    <clipPath id="clip0">
    <rect width="194" height="222" fill="white"/>
    </clipPath>
    </defs>
    </svg>
