<svg width="208" height="267" viewBox="0 0 208 267" fill="none" xmlns="http://www.w3.org/2000/svg">
    <g clip-path="url(#clip0)">
    <g opacity="0.3">
    <path opacity="0.3" d="M143.589 202.821C142.738 201.327 143.302 199.459 143.834 197.822C144.365 196.186 144.804 194.243 143.779 192.865C142.565 191.234 140.078 191.391 138.333 190.352C136.852 189.471 135.996 187.641 136.268 185.933C136.454 184.754 137.105 183.486 136.51 182.454C136.029 181.618 134.925 181.376 133.968 181.459C132.066 181.625 130.28 182.802 129.368 184.485C128.456 186.171 128.448 188.314 129.345 190.004C131.309 193.697 137.522 193.576 139.694 197.151C140.832 199.025 141.738 201.652 143.589 202.821Z" fill="#67370D"/>
    </g>
    <path d="M90.8196 239.83C87.8401 249.098 76.1449 250.552 66.5493 239.764C63.5752 236.421 61.7025 232.165 61.7648 227.68C61.8523 221.308 65.7088 218.701 71.4975 218.026C77.9977 217.267 84.2521 214.933 89.3139 210.764C95.6328 205.56 100.594 198.572 104.715 190.482C105.933 182.562 110.12 176.743 115.869 172.027C117.369 170.797 118.407 169.048 118.618 167.116C119.213 161.649 122.76 158.398 128.662 156.917C130.441 156.47 132.064 155.564 133.426 154.331C139.963 148.411 146.713 146.525 153.701 149.106C156.292 150.064 159.177 149.976 161.729 148.912C167.203 146.633 171.93 147.439 175.87 151.511C176.802 152.474 177.987 153.127 179.225 153.633C181.665 154.631 183.266 156.675 184.189 158.234C184.95 159.521 185.983 160.632 187.262 161.399C205.152 172.133 201.38 201.564 189.552 208.466C184.269 211.549 178.514 210.889 178.514 210.889C172.413 217.032 166.145 221.416 159.185 218.535C153.8 216.696 148.828 217.544 144.425 222.107C142.909 223.678 141.145 225 139.107 225.772C136.305 226.834 132.339 227.562 128.45 225.642C122.64 222.774 108.063 226.282 97.7669 231.628C94.4759 233.337 91.9577 236.292 90.8196 239.83Z" fill="#F47516"/>
    <g opacity="0.3">
    <path opacity="0.3" d="M61.7674 227.682C61.8477 221.309 65.7034 218.698 71.4954 218.03C77.9939 217.272 84.2485 214.937 89.3158 210.761C95.6332 205.557 100.589 198.572 104.719 190.484C105.929 182.561 110.121 176.745 115.872 172.035C117.372 170.805 118.408 169.053 118.617 167.123C119.215 161.654 122.763 158.4 128.668 156.917C130.445 156.476 132.063 155.566 133.428 154.331C139.965 148.416 146.713 146.528 153.706 149.109C156.293 150.069 159.183 149.975 161.736 148.919C167.202 146.634 171.937 147.444 175.875 151.513C176.807 152.475 177.992 153.132 179.226 153.639C181.668 154.633 183.266 156.675 184.189 158.234C184.949 159.527 185.985 160.635 187.266 161.407C199.623 168.817 201.647 185.146 197.826 196.813C196.524 194.552 194.836 192.472 192.708 190.652C191.578 189.687 190.736 188.419 190.206 187.023C189.549 185.325 188.31 183.047 186.069 181.651C184.931 180.948 183.869 180.111 183.104 179.001C179.898 174.336 175.364 172.749 169.591 174.091C166.905 174.717 164.038 174.321 161.644 172.947C155.18 169.246 148.211 169.983 140.794 174.738C139.245 175.722 137.501 176.346 135.668 176.496C129.602 176.975 125.574 179.59 124.084 184.889C123.552 186.755 122.241 188.309 120.559 189.27C114.112 192.964 109.029 198.01 106.524 205.625C101.125 212.915 95.0815 218.99 87.9903 223.066C82.3156 226.344 75.7661 227.61 69.225 227.276C66.2795 227.123 63.7355 227.544 61.7986 228.808C61.7739 228.436 61.7656 228.063 61.7674 227.682Z" fill="#67370D"/>
    </g>
    <g opacity="0.55">
    <path opacity="0.55" d="M62.429 232.458C62.9417 233.217 63.5084 233.941 64.1219 234.63C73.7232 245.419 85.4165 243.967 88.3942 234.703C89.5351 231.156 92.0519 228.21 95.3401 226.5C105.643 221.15 120.217 217.643 126.025 220.508C129.916 222.431 133.881 221.703 136.679 220.645C138.719 219.866 140.484 218.552 142.003 216.977C146.403 212.41 151.375 211.567 156.76 213.403C163.717 216.281 169.985 211.902 176.094 205.756C176.094 205.756 181.846 206.422 187.128 203.332C195.509 198.448 199.848 182.246 195.299 169.398C203.401 182.643 199.101 202.888 189.551 208.466C184.271 211.546 178.517 210.89 178.517 210.89C172.408 217.036 166.141 221.414 159.183 218.536C153.798 216.7 148.825 217.545 144.426 222.111C142.907 223.676 141.142 225 139.102 225.77C136.302 226.838 132.337 227.565 128.448 225.643C122.64 222.778 108.064 226.285 97.7628 231.626C94.4749 233.334 91.9582 236.29 90.8169 239.829C87.8394 249.102 76.1461 250.554 66.5448 239.765C64.6527 237.642 63.2128 235.141 62.429 232.458Z" fill="white"/>
    </g>
    <g opacity="0.25">
    <path opacity="0.25" d="M170.684 202.175C168.85 201.107 168.542 198.491 166.928 197.114C166.247 196.533 165.387 196.22 164.564 195.871C163.742 195.521 162.907 195.1 162.372 194.38C161.838 193.661 161.706 192.568 162.297 191.895C162.779 191.347 163.574 191.22 164.3 191.202C166.795 191.137 169.302 191.954 171.283 193.477C173.033 194.822 174.958 197.17 175.208 199.462C175.461 201.776 172.653 203.322 170.684 202.175Z" fill="white"/>
    </g>
    <path d="M169.47 145.561C172.419 146.019 175.123 147.481 177.493 149.93C178.089 150.545 178.912 151.055 180.081 151.534C183.108 152.772 185.044 155.232 186.134 157.078C186.735 158.095 187.527 158.916 188.425 159.454C197.017 164.608 201.899 174.256 201.818 185.925C201.743 196.739 197.27 206.586 190.687 210.429C186.222 213.034 181.504 213.265 179.389 213.212C173.572 218.929 166.575 224.004 158.391 220.663C153.545 219.029 149.618 219.989 146.047 223.687C144.146 225.656 142.078 227.073 139.9 227.897C135.451 229.582 131.147 229.507 127.448 227.68C122.841 225.408 109.191 228.25 98.8018 233.645C96.0399 235.078 93.9153 237.587 92.9705 240.526C91.486 245.145 88.0562 248.343 83.5615 249.301C77.4772 250.598 70.4856 247.599 64.8611 241.277C61.3389 237.318 59.436 232.478 59.5027 227.652C59.5687 222.849 61.6582 216.889 71.2379 215.772C77.6644 215.023 83.4184 212.685 87.88 209.011C93.4401 204.432 98.2374 198.136 102.539 189.769C103.797 182.187 107.693 175.805 114.44 170.272C115.529 169.379 116.233 168.141 116.371 166.874C116.841 162.555 119.262 156.94 128.117 154.717C129.485 154.373 130.797 153.659 131.914 152.647C139.203 146.046 146.793 144.135 154.484 146.977C156.502 147.721 158.829 147.664 160.866 146.816C163.893 145.557 166.784 145.143 169.47 145.561ZM162.285 217.076C166.492 217.73 170.917 215.325 176.913 209.288C177.401 208.796 178.087 208.556 178.773 208.635C178.816 208.64 183.884 209.15 188.418 206.504C193.583 203.49 197.233 195.016 197.297 185.898C197.366 175.877 193.286 167.659 186.102 163.349C184.562 162.424 183.23 161.057 182.246 159.395C181.509 158.147 180.237 156.498 178.372 155.736C176.629 155.024 175.28 154.159 174.249 153.095C170.982 149.719 167.28 149.058 162.595 151.01C159.477 152.31 156.041 152.391 152.92 151.238C146.853 149 140.97 150.559 134.943 156.018C133.277 157.526 131.295 158.598 129.211 159.122C123.988 160.432 121.337 163.05 120.868 167.363C120.598 169.84 119.331 172.12 117.301 173.785C111.267 178.734 107.979 184.148 106.951 190.827C106.914 191.067 106.839 191.299 106.729 191.514C102.097 200.606 96.8704 207.477 90.7476 212.518C85.6134 216.745 79.0479 219.431 71.7572 220.28C66.4022 220.904 64.0894 223.126 64.0269 227.708C63.9751 231.395 65.472 235.14 68.2378 238.25C72.7699 243.343 78.1504 245.814 82.6285 244.858C85.5366 244.238 87.6814 242.206 88.6704 239.134C89.9785 235.062 92.9159 231.59 96.7309 229.611C107.486 224.024 122.663 220.252 129.451 223.604C132.667 225.191 136.046 224.505 138.312 223.647C139.861 223.061 141.371 222.011 142.802 220.528C147.612 215.544 153.367 214.147 159.917 216.384C159.962 216.4 160.007 216.415 160.051 216.434C160.792 216.745 161.536 216.959 162.285 217.076Z" fill="#67370D"/>
    <path d="M179.318 213.404C177.744 213.301 176.589 212.71 175.564 211.932C175.059 211.531 174.592 211.064 174.194 210.487C173.79 209.927 173.481 209.113 173.383 208.585C172.877 206.203 173.423 204.169 173.739 202.419C174.089 200.645 174.241 199.086 173.631 197.544C173.055 196.018 171.892 194.634 170.353 193.839L170.348 193.836C170.125 193.722 170.039 193.446 170.153 193.223C170.256 193.023 170.487 192.932 170.693 192.998C172.57 193.6 174.222 194.952 175.268 196.735C175.797 197.62 176.157 198.65 176.325 199.692C176.491 200.729 176.49 201.747 176.471 202.698C176.448 203.655 176.41 204.55 176.46 205.373C176.507 206.197 176.643 206.946 176.901 207.541C177.056 207.9 177.119 207.946 177.284 208.118C177.446 208.273 177.67 208.434 177.916 208.563C178.398 208.828 179.033 208.946 179.306 208.866C180.539 208.506 181.828 209.218 182.186 210.456C182.543 211.694 181.832 212.989 180.598 213.349C180.334 213.426 180.068 213.454 179.808 213.437L179.318 213.404Z" fill="#67370D"/>
    <path d="M156.742 151.818C153.66 151.137 150.485 151.098 147.862 152.187C145.336 153.232 143.198 155.682 143.059 158.258C142.947 159.565 143.366 161.114 143.763 162.864C143.947 163.743 144.128 164.687 144.169 165.683C144.219 166.672 144.125 167.597 144.028 168.466C143.926 169.337 143.833 170.157 143.794 170.947C143.777 171.338 143.78 171.729 143.808 172.1C143.83 172.451 143.909 172.807 144.007 173.158C144.399 174.561 145.433 175.903 146.916 175.983L146.938 175.985C147.188 175.999 147.38 176.214 147.367 176.465C147.356 176.677 147.201 176.847 147.002 176.887C146.018 177.086 144.919 176.782 144.124 176.167C143.303 175.574 142.688 174.769 142.238 173.881C141.336 171.989 141.429 170.035 141.389 168.342C141.373 167.488 141.349 166.684 141.239 165.952C141.135 165.228 140.916 164.485 140.664 163.697C140.181 162.129 139.473 160.347 139.441 158.175C139.444 155.993 140.261 153.904 141.505 152.255C142.761 150.608 144.408 149.293 146.32 148.488C148.186 147.687 150.189 147.371 152.116 147.383C154.047 147.429 155.924 147.733 157.692 148.311L157.699 148.314C158.65 148.624 159.168 149.65 158.858 150.605C158.563 151.499 157.639 152.012 156.742 151.818Z" fill="#67370D"/>
    <path d="M144.956 203.511C144.352 204.058 143.414 204.178 142.63 203.999C141.84 203.805 141.106 203.398 140.529 202.74C139.441 201.488 139.116 199.981 138.788 198.837C138.499 197.694 138.111 196.782 137.675 196.412C137.278 196.02 136.477 195.767 135.303 195.596C134.725 195.504 134.082 195.414 133.384 195.264C132.7 195.113 131.904 194.864 131.206 194.473C129.81 193.696 128.717 192.501 128.074 191.098C127.419 189.695 127.297 188.064 127.654 186.656C128.008 185.24 128.811 183.971 129.92 183.163C130.126 183.013 130.414 183.058 130.563 183.264C130.673 183.418 130.676 183.615 130.589 183.767L130.581 183.781C129.412 185.803 129.515 188.201 130.619 189.709C131.158 190.485 131.91 191.11 132.726 191.45C133.479 191.795 134.515 191.87 135.815 192.028C136.461 192.116 137.181 192.227 137.957 192.486C138.722 192.75 139.57 193.199 140.218 193.896C140.875 194.588 141.272 195.397 141.506 196.139C141.751 196.885 141.848 197.594 141.928 198.241C142.057 199.514 142.11 200.556 142.465 201.366C142.604 201.721 142.889 202.11 143.254 202.359C143.613 202.626 144.031 202.789 144.523 202.717L144.583 202.709C144.835 202.671 145.07 202.847 145.107 203.101C145.127 203.257 145.065 203.41 144.956 203.511Z" fill="#67370D"/>
    <path d="M143.331 219.987C148.276 217.096 152.306 212.136 154.148 206.245C154.24 205.945 154.558 205.777 154.858 205.869C155.123 205.952 155.286 206.215 155.253 206.484C154.454 212.893 151.19 219.165 145.983 223.662L145.954 223.687C145.002 224.51 143.567 224.402 142.751 223.448C141.932 222.494 142.041 221.053 142.993 220.231C143.097 220.14 143.216 220.055 143.331 219.987Z" fill="#67370D"/>
    <path d="M176.629 178.858C173.893 167.246 167.894 165.558 158.63 173.792L176.629 178.858Z" fill="#F47516"/>
    <path d="M176.188 178.964C175.162 177.061 174.273 175.183 173.166 173.617C172.625 172.836 172.035 172.138 171.409 171.615C170.773 171.106 170.135 170.739 169.429 170.596C168.046 170.25 166.269 170.685 164.483 171.421C162.682 172.157 160.878 173.183 158.928 174.133L158.921 174.136C158.688 174.25 158.409 174.153 158.296 173.919C158.222 173.764 158.24 173.588 158.329 173.454C159.556 171.606 161.111 169.995 163.04 168.714C164.006 168.074 165.086 167.539 166.301 167.191C166.904 167.017 167.556 166.917 168.22 166.873C168.892 166.866 169.584 166.886 170.263 167.069C171.635 167.375 172.86 168.164 173.772 169.085C174.693 170.014 175.319 171.086 175.801 172.156C176.738 174.318 177.096 176.539 177.068 178.754C177.065 179.013 176.854 179.22 176.597 179.217C176.422 179.215 176.271 179.117 176.193 178.972L176.188 178.964Z" fill="#67370D"/>
    <g opacity="0.25">
    <path opacity="0.25" d="M153.095 194.025C152.677 194.089 152.248 194.143 151.833 194.066C151.418 193.988 151.011 193.754 150.822 193.374C150.514 192.751 150.898 191.985 151.43 191.538C152.36 190.755 153.643 190.586 154.851 190.474C155.521 190.411 156.214 190.359 156.853 190.572C157.492 190.784 158.069 191.329 158.11 192.004C158.211 193.689 154.167 193.86 153.095 194.025Z" fill="white"/>
    </g>
    <g opacity="0.25">
    <path opacity="0.25" d="M133.993 202.836C133.556 202.489 133.082 202.168 132.541 202.035C132 201.9 131.379 201.981 130.971 202.362C130.427 202.865 130.4 203.708 130.474 204.446C130.694 206.606 131.45 208.668 132.201 210.704C132.444 211.364 132.695 212.037 133.128 212.589C135.141 215.157 137.835 211.71 137.961 209.518C138.102 207.058 135.775 204.253 133.993 202.836Z" fill="white"/>
    </g>
    <g opacity="0.3">
    <path opacity="0.3" d="M182.585 185.276C182.294 184.744 181.854 184.263 181.279 184.079C180.703 183.893 179.986 184.079 179.683 184.604C179.326 185.223 179.646 186.02 180.088 186.582C180.529 187.143 181.104 187.629 181.339 188.305C181.479 188.705 181.56 189.231 181.969 189.343C183.682 189.813 182.881 185.818 182.585 185.276Z" fill="#67370D"/>
    </g>
    <g opacity="0.3">
    <path opacity="0.3" d="M175.137 181.875C173.759 182.112 173.834 184.948 175.562 184.688C177.235 184.437 176.388 181.658 175.137 181.875Z" fill="#67370D"/>
    </g>
    <g opacity="0.3">
    <path opacity="0.3" d="M178.812 188.324C178.794 188.049 178.719 187.767 178.54 187.557C178.452 187.453 178.334 187.371 178.205 187.325C178.074 187.278 177.934 187.269 177.802 187.312C177.474 187.421 177.318 187.79 177.23 188.126C176.932 189.266 178.904 189.722 178.812 188.324Z" fill="#67370D"/>
    </g>
    <g opacity="0.3">
    <path opacity="0.3" d="M143.589 202.821C142.738 201.327 143.302 199.459 143.834 197.822C144.365 196.186 144.804 194.243 143.779 192.865C142.565 191.234 140.078 191.391 138.333 190.352C136.852 189.471 135.996 187.641 136.268 185.933C136.454 184.754 137.105 183.486 136.51 182.454C136.029 181.618 134.925 181.376 133.968 181.459C132.066 181.625 130.28 182.802 129.368 184.485C128.456 186.171 128.448 188.314 129.345 190.004C131.309 193.697 137.522 193.576 139.694 197.151C140.832 199.025 141.738 201.652 143.589 202.821Z" fill="#67370D"/>
    </g>
    <g opacity="0.3">
    <path opacity="0.3" d="M171.399 193.732C172.94 193.084 174.843 193.417 176.076 194.548C177.208 195.588 177.719 197.132 178.614 198.382C179.097 199.058 179.705 199.668 179.993 200.446C180.428 201.621 180.026 203.002 179.184 203.927C178.341 204.853 177.125 205.369 175.896 205.585C176.437 203.472 176.179 201.106 175.389 199.075C174.598 197.046 173.223 194.915 171.399 193.732Z" fill="#792937"/>
    </g>
    </g>
    <g clip-path="url(#clip1)">
    <g opacity="0.3">
    <path opacity="0.3" d="M118.812 94.7593C116.971 93.6987 116.405 91.3536 115.948 89.2761C115.492 87.1987 114.746 84.8529 112.791 84.0237C110.477 83.0431 107.923 84.7661 105.413 84.749C103.282 84.7351 101.225 83.3187 100.447 81.3276C99.909 79.9546 99.8101 78.1946 98.5299 77.4663C97.4957 76.8759 96.1664 77.3075 95.1974 77.995C93.2732 79.3609 92.104 81.7323 92.1846 84.098C92.2658 86.4653 93.5974 88.7549 95.6104 89.9963C100.013 92.7074 106.563 88.6933 111.114 91.1477C113.499 92.4346 116.108 94.6706 118.812 94.7593Z" fill="#67370D"/>
    </g>
    <path d="M85.679 167.216C88.2956 178.961 76.7333 187.823 59.7566 182.318C54.4951 180.613 49.8371 177.245 47.0995 172.423C43.2092 165.573 45.6921 160.383 51.4427 156.044C57.8999 151.171 63.1101 144.772 65.9012 137.161C69.3864 127.662 70.3073 117.108 69.6443 105.905C65.9921 96.698 66.8186 87.8756 70.0012 79.2518C70.8316 77.0025 70.8454 74.4888 69.862 72.2969C67.0786 66.0944 68.8287 60.4104 74.1969 55.1417C75.8144 53.553 76.9791 51.572 77.66 49.405C80.9294 39.0061 86.949 32.775 96.0136 31.1587C99.3764 30.5597 102.397 28.6621 104.454 25.9323C108.866 20.0794 114.411 17.9836 121.157 19.8627C122.753 20.3071 124.425 20.2629 126.062 20.0284C129.288 19.5671 132.273 20.7454 134.232 21.8312C135.848 22.7282 137.643 23.2667 139.487 23.2849C165.275 23.547 179.653 57.2897 171.355 72.0439C167.649 78.6345 161.099 81.529 161.099 81.529C158.434 91.8935 154.49 100.487 145.267 101.766C138.376 103.171 133.603 107.185 131.762 114.803C131.127 117.426 130.072 119.939 128.382 122.036C126.057 124.92 122.284 128.176 116.936 128.56C108.948 129.133 95.5965 141.987 87.9595 154.126C85.5184 158.006 84.6807 162.731 85.679 167.216Z" fill="#F47516"/>
    <g opacity="0.3">
    <path opacity="0.3" d="M47.1035 172.423C43.2048 165.577 45.6841 160.382 51.4429 156.049C57.8991 151.179 63.1087 144.778 65.9015 137.157C69.3851 127.659 70.3029 117.112 69.65 105.905C65.9871 96.7 66.8209 87.8766 70.0095 79.2582C70.8399 77.0089 70.8491 74.4931 69.8653 72.3053C67.0839 66.0981 68.8327 60.4107 74.2029 55.1374C75.8214 53.5561 76.978 51.5743 77.6617 49.4043C80.9347 39.0098 86.9503 32.7784 96.0209 31.1578C99.38 30.5641 102.403 28.6577 104.465 25.9357C108.865 20.0818 114.421 17.9854 121.165 19.8617C122.76 20.3044 124.434 20.2653 126.067 20.0344C129.292 19.5674 132.273 20.7454 134.232 21.8312C135.85 22.7349 137.648 23.2687 139.497 23.2907C157.306 23.4679 169.674 39.6149 172.893 54.4446C170.091 52.8481 166.99 51.6845 163.584 51.0748C161.775 50.7515 160.085 49.9266 158.647 48.7691C156.884 47.3685 154.139 45.7146 150.877 45.627C149.223 45.5884 147.567 45.36 146.058 44.6541C139.722 41.6841 133.896 42.8264 128.579 47.867C126.105 50.2133 122.801 51.5837 119.389 51.6156C110.182 51.7104 103.212 56.8519 98.2747 66.5607C97.2387 68.5784 95.7684 70.3343 93.9077 71.6401C87.7382 75.9428 85.0787 81.2496 86.8024 87.8315C87.4018 90.1536 86.9747 92.6304 85.7824 94.7078C81.217 102.677 78.9513 111.236 81.0413 120.922C79.841 132.072 77.1945 142.328 72.1808 151.107C68.1789 158.15 61.9861 163.595 54.8024 167.328C51.5657 169.006 49.116 171.046 47.8409 173.605C47.5819 173.223 47.34 172.831 47.1035 172.423Z" fill="#67370D"/>
    </g>
    <g opacity="0.55">
    <path opacity="0.55" d="M50.7953 177.103C51.8164 177.592 52.8736 178.01 53.9583 178.361C70.9418 183.863 82.5037 175.005 79.8867 163.264C78.8861 158.769 79.7279 154.053 82.1656 150.175C89.8073 138.028 103.156 125.177 111.141 124.601C116.492 124.22 120.265 120.964 122.587 118.087C124.275 115.981 125.336 113.476 125.972 110.846C127.809 103.226 132.583 99.2176 139.473 97.8089C148.691 96.5283 152.637 87.9412 155.309 77.5683C155.309 77.5683 161.86 74.6812 165.56 68.0853C171.444 57.6374 165.942 37.6473 153.058 26.7905C169.979 35.8495 178.05 60.1257 171.353 72.0445C167.649 78.6304 161.103 81.5276 161.103 81.5276C158.431 91.9004 154.485 100.488 145.266 101.768C138.376 103.177 133.601 107.188 131.765 114.806C131.123 117.425 130.069 119.94 128.375 122.037C126.057 124.926 122.284 128.18 116.935 128.562C108.95 129.138 95.5994 141.99 87.9538 154.126C85.5154 158.003 84.6793 162.728 85.6749 167.215C88.2975 178.966 76.7357 187.824 59.7522 182.322C56.4073 181.241 53.3084 179.474 50.7953 177.103Z" fill="white"/>
    </g>
    <g opacity="0.25">
    <path opacity="0.25" d="M147.302 77.1315C144.679 77.1392 142.715 74.5417 140.132 74.0828C139.044 73.8889 137.93 74.0933 136.835 74.2345C135.739 74.3756 134.585 74.4483 133.565 74.0157C132.546 73.5824 131.722 72.4992 131.931 71.4121C132.102 70.5266 132.871 69.8949 133.634 69.4208C136.253 67.7921 139.439 67.0961 142.503 67.4814C145.209 67.8217 148.73 69.1226 150.43 71.4103C152.147 73.7188 150.118 77.1233 147.302 77.1315Z" fill="white"/>
    </g>
    <path d="M110.613 17.5187C114.045 16.1638 117.842 16.0325 121.9 17.1618C122.92 17.4452 124.116 17.4744 125.662 17.2544C129.665 16.6826 133.266 18.0954 135.583 19.3819C136.86 20.0904 138.218 20.4713 139.511 20.4833C151.897 20.6081 163.134 27.8444 170.342 40.3377C177.023 51.9164 178.41 65.2136 173.792 73.4268C170.659 78.9961 165.773 82.1918 163.485 83.4586C160.856 93.1907 156.567 102.978 145.752 104.531C139.563 105.819 135.974 109.297 134.478 115.473C133.683 118.762 132.363 121.566 130.556 123.806C126.865 128.383 122.228 130.995 117.142 131.36C110.808 131.816 98.0298 143.381 90.3236 155.629C88.2744 158.884 87.5774 162.887 88.4075 166.612C89.7121 172.466 88.0541 178.02 83.8602 181.852C78.1829 187.039 68.8526 188.212 58.9022 184.987C52.6709 182.967 47.6162 178.996 44.6701 173.807C41.7379 168.645 40.2399 160.983 49.7569 153.802C56.1414 148.986 60.8155 142.895 63.2764 136.188C66.3431 127.83 67.5222 118.116 66.8782 106.505C63.4801 97.6332 63.6441 88.3923 67.3801 78.2736C67.9835 76.6404 67.9599 74.8797 67.3149 73.4421C65.116 68.5438 64.1864 61.0422 72.2402 53.1357C73.484 51.9141 74.4364 50.3316 74.9948 48.555C78.6407 36.9583 85.54 30.1759 95.5176 28.3973C98.1349 27.9294 100.581 26.4141 102.223 24.2366C104.663 21.002 107.487 18.7527 110.613 17.5187ZM147.661 98.2715C152.557 96.3389 155.771 91.0072 158.392 80.8219C158.604 79.992 159.185 79.3079 159.966 78.9627C160.016 78.9412 165.739 76.3165 168.919 70.6606C172.542 64.2175 171.137 52.8993 165.504 43.1357C159.314 32.4068 149.825 26.1937 139.47 26.0892C137.249 26.0664 134.974 25.4412 132.886 24.2839C131.32 23.4141 128.933 22.4505 126.467 22.8039C124.164 23.1345 122.184 23.0554 120.419 22.5651C114.825 21.0081 110.464 22.6172 106.689 27.6279C104.176 30.9631 100.563 33.1977 96.5137 33.9201C88.6454 35.3264 83.3462 40.6669 80.3318 50.256C79.4985 52.9047 78.0551 55.2873 76.1601 57.1486C71.4102 61.8119 70.2194 66.2609 72.4157 71.1525C73.6764 73.9635 73.7509 77.1865 72.6271 80.2316C69.2874 89.2808 69.1659 97.1099 72.2448 104.874C72.3549 105.153 72.4209 105.448 72.438 105.746C73.1826 118.337 71.9041 128.931 68.5268 138.135C65.6949 145.853 60.3725 152.821 53.1286 158.284C47.8088 162.298 46.7317 166.114 49.5292 171.038C51.7795 175.003 55.7171 178.061 60.6104 179.648C68.6274 182.245 75.91 181.517 80.0875 177.698C82.8008 175.218 83.8173 171.71 82.9516 167.816C81.8006 162.656 82.7627 157.118 85.5932 152.621C93.5696 139.941 107.395 126.43 116.729 125.76C121.151 125.442 124.326 122.598 126.205 120.266C127.49 118.673 128.444 116.61 129.044 114.133C131.057 105.812 136.321 100.724 144.703 99.0137C144.761 99.0027 144.819 98.9916 144.877 98.9839C145.862 98.8515 146.789 98.6158 147.661 98.2715Z" fill="#67370D"/>
    <path d="M163.529 83.7076C161.786 84.5821 160.185 84.674 158.605 84.4856C157.816 84.3736 157.026 84.1667 156.241 83.8006C155.461 83.4559 154.621 82.7808 154.187 82.2799C152.158 80.056 151.469 77.5458 150.712 75.482C149.976 73.3714 149.164 71.6132 147.549 70.3506C145.98 69.0833 143.875 68.3347 141.737 68.4483L141.73 68.4492C141.421 68.4662 141.156 68.2268 141.139 67.9172C141.124 67.6394 141.313 67.3977 141.574 67.3392C143.952 66.8085 146.559 67.2169 148.789 68.4639C149.906 69.0779 150.934 69.9506 151.765 70.9574C152.59 71.9587 153.225 73.0444 153.799 74.0711C154.374 75.1051 154.892 76.0839 155.46 76.9301C156.025 77.7793 156.638 78.4932 157.285 78.9663C157.675 79.2533 157.772 79.2619 158.055 79.3424C158.324 79.407 158.664 79.4382 159.007 79.4211C159.687 79.4033 160.438 79.1324 160.679 78.8759C161.769 77.7208 163.589 77.6745 164.744 78.771C165.898 79.8675 165.949 81.693 164.859 82.8481C164.626 83.0956 164.359 83.2922 164.072 83.4368L163.529 83.7076Z" fill="#67370D"/>
    <path d="M100.952 32.1486C97.2404 33.3497 93.8295 35.2927 91.7136 38.0942C89.6732 40.7882 88.9252 44.7361 90.3868 47.5707C91.0845 49.0342 92.5001 50.424 94.0174 52.0418C94.7639 52.8643 95.5463 53.758 96.2129 54.7946C96.8839 55.8178 97.3622 56.8627 97.8026 57.8507C98.2386 58.8424 98.6514 59.7752 99.1038 60.6418C99.3305 61.0691 99.5777 61.4845 99.8394 61.863C100.082 62.2236 100.389 62.5534 100.713 62.8663C102.008 64.1172 103.95 64.9031 105.582 64.0608L105.606 64.0492C105.881 63.9076 106.22 64.0166 106.364 64.2921C106.485 64.5259 106.426 64.8036 106.239 64.9709C105.314 65.7985 103.951 66.1615 102.72 66.0026C101.473 65.8829 100.315 65.4096 99.2796 64.7438C97.1345 63.2903 96.0118 61.1475 94.9105 59.3675C94.3598 58.4677 93.8317 57.6251 93.2567 56.9137C92.6927 56.2057 91.9948 55.5506 91.2338 54.8679C89.7389 53.4978 87.869 52.0405 86.4766 49.7439C85.1161 47.4153 84.6812 44.6766 84.9768 42.141C85.2873 39.5995 86.2216 37.1674 87.7563 35.114C89.2455 33.0923 91.1841 31.5032 93.2468 30.3119C95.3342 29.1537 97.526 28.304 99.7732 27.8151L99.7822 27.8135C100.99 27.5502 102.184 28.3203 102.45 29.5326C102.694 30.6701 102.029 31.7951 100.952 32.1486Z" fill="#67370D"/>
    <path d="M120.702 94.6407C120.4 95.6012 119.475 96.3162 118.526 96.6148C117.562 96.9022 116.525 96.927 115.498 96.5862C113.556 95.9308 112.267 94.528 111.202 93.5125C110.179 92.4748 109.196 91.7439 108.5 91.6224C107.831 91.4531 106.819 91.6836 105.46 92.2358C104.785 92.4981 104.043 92.8046 103.206 93.0808C102.383 93.3476 101.377 93.5795 100.388 93.5988C98.4145 93.6435 96.5014 93.0524 94.9391 91.9575C93.363 90.872 92.2128 89.2083 91.7139 87.4838C91.2066 85.7529 91.2696 83.8978 91.9463 82.3425C92.0723 82.0538 92.4071 81.9216 92.6953 82.0488C92.9087 82.1433 93.0355 82.3516 93.0378 82.5683L93.0378 82.5878C93.0555 85.4756 94.6646 87.9684 96.784 88.8861C97.8446 89.3766 99.0365 89.5725 100.12 89.4246C101.138 89.3219 102.29 88.7545 103.775 88.1099C104.52 87.8003 105.356 87.4682 106.346 87.26C107.327 87.0632 108.512 87.0111 109.638 87.3495C110.772 87.6771 111.701 88.2913 112.414 88.9365C113.142 89.578 113.687 90.2738 114.178 90.9136C115.112 92.1906 115.82 93.269 116.704 93.9108C117.074 94.2018 117.621 94.4388 118.166 94.4762C118.716 94.5368 119.264 94.4488 119.743 94.0652L119.802 94.0186C120.047 93.8208 120.408 93.8612 120.606 94.1092C120.725 94.2625 120.754 94.4646 120.702 94.6407Z" fill="#67370D"/>
    <path d="M129.27 113.226C132.734 107.052 133.932 99.2426 132.213 91.8098C132.123 91.4313 132.357 91.0534 132.735 90.9647C133.07 90.8869 133.407 91.0663 133.54 91.3733C136.695 98.7075 137.136 107.436 134.395 115.487L134.379 115.532C133.879 117.004 132.282 117.786 130.814 117.279C129.345 116.773 128.561 115.169 129.061 113.697C129.115 113.536 129.19 113.37 129.27 113.226Z" fill="#67370D"/>
    <path d="M139.064 48.5498C128.887 37.8776 121.435 39.8287 116.703 54.401L139.064 48.5498Z" fill="#F47516"/>
    <path d="M138.66 48.9385C136.377 47.5513 134.253 46.1046 132.095 45.1266C131.029 44.6324 129.963 44.2565 128.969 44.0897C127.973 43.9446 127.062 43.9523 126.221 44.2419C124.529 44.7367 122.907 46.3119 121.463 48.2128C120.002 50.1243 118.719 52.3462 117.234 54.5782L117.229 54.5859C117.052 54.8522 116.693 54.9238 116.427 54.7452C116.25 54.6264 116.16 54.427 116.171 54.2285C116.324 51.4906 116.975 48.8012 118.231 46.2283C118.861 44.9421 119.678 43.6969 120.756 42.5659C121.291 42.0032 121.924 41.4891 122.604 41.0262C123.316 40.5995 124.067 40.1883 124.905 39.9585C126.559 39.4279 128.359 39.5022 129.908 39.9148C131.47 40.3295 132.808 41.0816 133.991 41.9203C136.342 43.6403 138.112 45.7859 139.467 48.1651C139.625 48.4428 139.53 48.795 139.254 48.9527C139.066 49.0599 138.844 49.0506 138.67 48.9443L138.66 48.9385Z" fill="#67370D"/>
    <g opacity="0.25">
    <path opacity="0.25" d="M123.45 79.4368C123.044 79.7661 122.621 80.0923 122.13 80.2689C121.638 80.4454 121.058 80.451 120.62 80.1637C119.901 79.6916 119.832 78.6347 120.12 77.8254C120.622 76.4093 121.885 75.427 123.103 74.5517C123.778 74.0657 124.484 73.5768 125.299 73.4048C126.113 73.2312 127.069 73.4522 127.535 74.1465C128.695 75.8799 124.49 78.591 123.45 79.4368Z" fill="white"/>
    </g>
    <g opacity="0.25">
    <path opacity="0.25" d="M108.589 100.775C107.906 100.677 107.199 100.632 106.54 100.828C105.879 101.023 105.267 101.498 105.07 102.158C104.804 103.035 105.303 103.951 105.843 104.692C107.428 106.858 109.524 108.583 111.597 110.285C112.269 110.837 112.957 111.397 113.764 111.716C117.516 113.196 118.234 107.835 116.998 105.419C115.611 102.708 111.375 101.171 108.589 100.775Z" fill="white"/>
    </g>
    <g opacity="0.3">
    <path opacity="0.3" d="M149.428 51.6704C148.784 51.2853 148.015 51.047 147.286 51.2104C146.556 51.3721 145.908 52.0186 145.913 52.7683C145.92 53.6517 146.759 54.3016 147.581 54.6241C148.403 54.9465 149.319 55.1056 149.992 55.679C150.391 56.0188 150.808 56.5287 151.313 56.3931C153.433 55.8224 150.082 52.063 149.428 51.6704Z" fill="#67370D"/>
    </g>
    <g opacity="0.3">
    <path opacity="0.3" d="M139.359 52.6997C138.038 53.8138 139.891 56.7913 141.571 55.4345C143.198 54.1199 140.558 51.6865 139.359 52.6997Z" fill="#67370D"/>
    </g>
    <g opacity="0.3">
    <path opacity="0.3" d="M147.309 57.2801C147.119 56.9979 146.862 56.7438 146.541 56.6316C146.381 56.576 146.204 56.5625 146.038 56.5931C145.869 56.625 145.714 56.7036 145.6 56.832C145.318 57.153 145.383 57.6444 145.499 58.0569C145.894 59.4592 148.282 58.7129 147.309 57.2801Z" fill="#67370D"/>
    </g>
    <g opacity="0.3">
    <path opacity="0.3" d="M118.812 94.7593C116.971 93.6987 116.405 91.3536 115.948 89.2761C115.492 87.1987 114.746 84.8529 112.791 84.0237C110.477 83.0431 107.923 84.7661 105.413 84.749C103.282 84.7351 101.225 83.3187 100.447 81.3276C99.909 79.9546 99.8101 78.1946 98.5299 77.4663C97.4957 76.8759 96.1664 77.3075 95.1974 77.995C93.2732 79.3609 92.104 81.7323 92.1846 84.098C92.2658 86.4653 93.5974 88.7549 95.6104 89.9963C100.013 92.7074 106.563 88.6933 111.114 91.1477C113.499 92.4346 116.108 94.6706 118.812 94.7593Z" fill="#67370D"/>
    </g>
    <g opacity="0.3">
    <path opacity="0.3" d="M142.785 67.681C144.024 66.0261 146.261 65.1917 148.283 65.6272C150.14 66.0285 151.651 67.3555 153.386 68.1295C154.324 68.5482 155.353 68.8179 156.148 69.4678C157.346 70.4482 157.781 72.1727 157.461 73.6861C157.141 75.1996 156.167 76.511 154.992 77.5092C154.247 74.9179 152.493 72.5565 150.381 70.8838C148.269 69.2152 145.47 67.8021 142.785 67.681Z" fill="#792937"/>
    </g>
    </g>
    <defs>
    <clipPath id="clip0">
    <rect width="134.801" height="116.618" fill="white" transform="translate(189.688 266.724) rotate(-171.161)"/>
    </clipPath>
    <clipPath id="clip1">
    <rect width="166.629" height="144.153" fill="white" transform="translate(207.922 134.083) rotate(158.457)"/>
    </clipPath>
    </defs>
    </svg>
