<svg width="157" height="352" viewBox="0 0 157 352" fill="none" xmlns="http://www.w3.org/2000/svg">
    <g clip-path="url(#clip0)">
    <path d="M6.48712 223.228C6.48712 223.228 7.36752 266.762 39.5946 247.922" stroke="#3C2415" stroke-width="4.3969" stroke-miterlimit="10" stroke-linecap="round" stroke-linejoin="round"/>
    <path d="M6.83466 221.906L9.55693 217.906" stroke="#3C2415" stroke-width="4.3969" stroke-miterlimit="10" stroke-linecap="round" stroke-linejoin="round"/>
    <path d="M6.83467 221.906L5.66467 217.199" stroke="#3C2415" stroke-width="4.3969" stroke-miterlimit="10" stroke-linecap="round" stroke-linejoin="round"/>
    <path d="M6.83466 221.906L2.54852 219.645" stroke="#3C2415" stroke-width="4.3969" stroke-miterlimit="10" stroke-linecap="round" stroke-linejoin="round"/>
    <path d="M67.4429 302.378C67.4429 302.378 48.6882 315.306 49.8814 344.371L43.1857 346.806" stroke="#3C2415" stroke-width="4.3969" stroke-miterlimit="10" stroke-linecap="round" stroke-linejoin="round"/>
    <path d="M111.521 300.755C111.521 300.755 107.2 323.143 128.399 343.026L125.329 349.461" stroke="#3C2415" stroke-width="4.3969" stroke-miterlimit="10" stroke-linecap="round" stroke-linejoin="round"/>
    <path d="M86.3019 317.265C57.411 317.265 40.9152 305.439 40.4403 301.358L24.5236 129.445C24.1298 126.001 25.0681 122.686 27.1301 120.367C28.8329 118.465 31.1382 117.41 33.6519 117.41H138.952C141.454 117.41 143.771 118.465 145.474 120.367C147.524 122.674 148.474 125.99 148.08 129.48L132.175 301.312C131.631 305.938 112.772 317.265 86.3019 317.265Z" fill="#DC0107"/>
    <path d="M138.952 119.022C143.748 119.022 147.13 123.648 146.482 129.294L130.577 301.161C130.252 303.99 113.594 315.642 86.3135 315.642C57.7238 315.642 42.3748 303.978 42.0504 301.161L26.1222 129.306C25.4735 123.66 28.8561 119.034 33.6519 119.034H138.952V119.022ZM138.952 115.811H33.6519C30.6864 115.811 27.941 117.051 25.9253 119.312C23.5737 121.955 22.4848 125.712 22.925 129.642L38.8301 301.474V301.509V301.544C39.4093 306.541 50.1246 311.491 52.2677 312.43C58.9749 315.375 70.3274 318.888 86.2903 318.888C112.992 318.888 133.044 307.642 133.751 301.555V301.52V301.486L149.656 129.654C150.096 125.735 149.007 121.967 146.644 119.323C144.663 117.051 141.917 115.811 138.952 115.811Z" fill="#3C2415"/>
    <path d="M138.952 119.022H135.674L119.896 289.347C119.572 292.176 102.925 303.828 75.6329 303.828C60.4808 303.828 49.0936 300.558 41.645 297.057L42.0273 301.15C42.3517 303.978 57.7006 315.63 86.2903 315.63C113.583 315.63 130.229 303.967 130.553 301.15L146.458 129.283C147.13 123.648 143.736 119.022 138.952 119.022Z" fill="#DC0107"/>
    <path d="M86.3019 147.983C51.9318 147.983 17.133 142.963 17.133 133.375V120.297C17.133 119.451 17.8164 118.767 18.6621 118.767H153.919C154.764 118.767 155.448 119.451 155.448 120.297V133.375C155.448 137.816 148.37 141.433 134.399 144.134C121.541 146.615 104.454 147.983 86.3019 147.983Z" fill="#BCBEC0"/>
    <path d="M153.93 120.297V133.375C153.93 140.598 123.649 146.453 86.3019 146.453C48.9546 146.453 18.6737 140.598 18.6737 133.375V120.297H153.93ZM153.93 117.225H18.6737C16.9824 117.225 15.6039 118.605 15.6039 120.297V133.375C15.6039 138.801 22.6934 142.697 37.9033 145.642C50.866 148.146 68.0569 149.525 86.3019 149.525C104.559 149.525 121.749 148.146 134.701 145.642C149.91 142.697 157 138.801 157 133.375V120.297C157 118.593 155.621 117.225 153.93 117.225Z" fill="#3C2415"/>
    <path d="M86.3019 134.906C51.9318 134.906 17.133 129.886 17.133 120.298C17.133 115.857 24.2109 112.24 38.1814 109.538C51.0514 107.046 68.138 105.678 86.2904 105.678C120.661 105.678 155.448 110.698 155.448 120.286C155.448 124.726 148.37 128.344 134.399 131.045C121.541 133.538 104.454 134.906 86.3019 134.906Z" fill="#F1F2F2"/>
    <path d="M86.3019 107.22C123.649 107.22 153.93 113.074 153.93 120.297C153.93 127.52 123.649 133.375 86.3019 133.375C48.9546 133.375 18.6737 127.52 18.6737 120.297C18.6737 113.074 48.9546 107.22 86.3019 107.22ZM86.3019 104.147C68.0453 104.147 50.8544 105.527 37.9033 108.031C22.6934 110.976 15.6039 114.872 15.6039 120.297C15.6039 125.723 22.6934 129.619 37.9033 132.564C50.866 135.068 68.0569 136.448 86.3019 136.448C104.559 136.448 121.749 135.068 134.701 132.564C149.91 129.619 157 125.723 157 120.297C157 114.872 149.91 110.976 134.701 108.031C121.738 105.527 104.559 104.147 86.3019 104.147Z" fill="#3C2415"/>
    <path d="M86.3019 127.057C75.3433 127.057 65.0218 126.489 57.2604 125.457C45.6995 123.915 44.1472 121.979 44.1472 120.286C44.1472 118.593 45.6995 116.657 57.2604 115.127C65.0334 114.095 75.3433 113.527 86.3019 113.527C97.2605 113.527 107.582 114.095 115.343 115.127C126.904 116.669 128.457 118.605 128.457 120.286C128.457 121.979 126.904 123.915 115.343 125.457C107.57 126.489 97.2605 127.057 86.3019 127.057Z" fill="#BCBEC0"/>
    <path d="M86.3019 114.86C108.845 114.86 127.124 117.295 127.124 120.297C127.124 123.3 108.845 125.735 86.3019 125.735C63.7591 125.735 45.4794 123.3 45.4794 120.297C45.4794 117.295 63.7591 114.86 86.3019 114.86ZM86.3019 112.193C75.2854 112.193 64.906 112.761 57.0867 113.805C46.6841 115.185 42.815 116.947 42.815 120.297C42.815 123.648 46.6841 125.399 57.0867 126.79C64.906 127.833 75.2854 128.402 86.3019 128.402C97.3184 128.402 107.698 127.833 115.517 126.79C125.92 125.41 129.789 123.648 129.789 120.297C129.789 116.947 125.92 115.196 115.517 113.805C107.698 112.761 97.3184 112.193 86.3019 112.193Z" fill="#3C2415"/>
    <path d="M101.292 120.298C101.292 121.399 94.5846 122.292 86.3019 122.292C78.0193 122.292 71.312 121.399 71.312 120.298C71.312 119.196 78.0193 118.303 86.3019 118.303C94.5846 118.303 101.292 119.196 101.292 120.298Z" fill="#3C2415"/>
    <path d="M86.1513 120.379C83.9851 120.379 81.8536 120.297 79.9886 120.147C79.1545 120.077 78.5058 119.381 78.5058 118.547V40.5319C78.5058 40.1957 78.5406 39.8826 78.5869 39.5696C78.1583 36.5204 79.6179 33.4597 82.2822 31.9061L132.152 2.27228C132.407 2.12156 132.685 2.052 132.974 2.052C133.38 2.052 133.785 2.20272 134.087 2.50416C134.608 3.01429 134.724 3.80267 134.376 4.44033C134.365 4.46352 132.94 7.17647 134.121 9.20539C135.21 11.072 138.338 12.2314 139.45 12.5212C140.076 12.6835 140.551 13.2053 140.643 13.8545C140.736 14.4922 140.435 15.1298 139.879 15.4661L93.7969 42.8623V118.547C93.7969 119.381 93.1598 120.077 92.3141 120.147C90.4491 120.297 88.3176 120.379 86.1513 120.379Z" fill="white"/>
    <path d="M132.974 3.66351C132.974 3.66351 131.063 7.14166 132.743 10.0169C134.423 12.8922 139.056 14.0864 139.056 14.0864L92.1867 41.9463V115.938V118.535C90.4375 118.674 88.3639 118.767 86.1513 118.767C83.9388 118.767 81.8768 118.686 80.116 118.535V115.938V40.5319C80.116 40.1956 80.1623 39.8826 80.2087 39.5696C79.7801 37.1465 80.8342 34.619 83.0815 33.2973L132.974 3.66351ZM132.963 0.452023C132.882 0.452023 132.801 0.452024 132.72 0.463617C132.198 0.498399 131.7 0.672306 131.283 0.92737L81.4482 30.538C78.3089 32.3698 76.5481 35.9523 76.9651 39.5696C76.9304 39.871 76.8956 40.184 76.8956 40.5319V115.938V118.535C76.8956 120.216 78.1814 121.607 79.8496 121.747C81.7609 121.909 83.9388 121.99 86.1398 121.99C88.3523 121.99 90.5302 121.909 92.43 121.747C94.0981 121.607 95.3839 120.216 95.3839 118.535V115.938V43.7781L140.678 16.8573C141.802 16.1964 142.404 14.9211 142.219 13.6342C142.033 12.3473 141.095 11.2922 139.832 10.9676C138.489 10.6082 136.172 9.54158 135.5 8.39379C134.909 7.37353 135.535 5.70402 135.743 5.27505C136.021 4.79971 136.172 4.2548 136.172 3.66351C136.172 1.88966 134.747 0.463617 132.986 0.44043C132.986 0.452024 132.974 0.452023 132.963 0.452023Z" fill="#3C2415"/>
    <path d="M92.1867 110.477C92.0129 110.477 91.8392 110.454 91.677 110.396C87.1939 108.889 83.0236 106.941 79.2704 104.588C78.7954 104.298 78.5174 103.776 78.5174 103.22V87.4288C78.5174 86.8027 78.8881 86.2231 79.4673 85.968C79.6758 85.8752 79.9075 85.8289 80.1276 85.8289C80.5099 85.8289 80.8921 85.968 81.1818 86.2231C84.8192 89.3998 88.7346 91.904 92.8122 93.6547C93.403 93.9098 93.7853 94.4894 93.7853 95.1387V108.866C93.7853 109.388 93.5304 109.874 93.1134 110.176C92.847 110.373 92.511 110.477 92.1867 110.477Z" fill="#DC0107"/>
    <path d="M80.1276 87.4289C83.8692 90.71 87.9353 93.307 92.1867 95.1272V108.866C87.9005 107.428 83.8692 105.562 80.1276 103.22V87.4289ZM80.1276 84.2058C79.6758 84.2058 79.224 84.2986 78.7954 84.4957C77.6485 85.0174 76.9072 86.1652 76.9072 87.4289V103.22C76.9072 104.333 77.4748 105.365 78.4247 105.944C82.2822 108.356 86.5683 110.361 91.1673 111.915C91.5032 112.031 91.8507 112.077 92.1867 112.077C92.847 112.077 93.5073 111.869 94.0633 111.474C94.8974 110.872 95.4071 109.898 95.4071 108.866V95.1272C95.4071 93.8403 94.6425 92.6693 93.4609 92.1708C89.5339 90.4897 85.7575 88.0782 82.2475 85.0058C81.6451 84.4841 80.8921 84.2058 80.1276 84.2058Z" fill="#3C2415"/>
    <path d="M92.1866 79.8466C91.897 79.8466 91.5959 79.7655 91.341 79.6031C87.2518 77.0525 83.29 73.2845 78.8765 67.7427C78.6448 67.4528 78.5289 67.105 78.5289 66.7456V51.4185C78.5289 50.7809 78.9112 50.1896 79.502 49.9461C79.7105 49.8534 79.919 49.8186 80.1391 49.8186C80.5446 49.8186 80.9384 49.9693 81.2396 50.2592C84.9002 53.7141 88.8041 56.3923 92.8585 58.2241C93.4377 58.4792 93.8084 59.0589 93.8084 59.6965V78.2583C93.8084 78.8379 93.4957 79.3829 92.986 79.6611C92.7195 79.777 92.4531 79.8466 92.1866 79.8466Z" fill="#DC0107"/>
    <path d="M80.1276 51.4186C83.7186 54.804 87.7847 57.6909 92.1867 59.685V78.2467C87.6457 75.4294 83.7071 71.2441 80.1276 66.7457V51.4186ZM80.1276 48.1956C79.6989 48.1956 79.2587 48.2767 78.8533 48.4622C77.6717 48.9723 76.9072 50.1317 76.9072 51.4186V66.7457C76.9072 67.4761 77.1504 68.1833 77.6022 68.7514C82.1316 74.444 86.2324 78.3279 90.4838 80.9829C91.0051 81.3075 91.5959 81.4698 92.1867 81.4698C92.7195 81.4698 93.264 81.3307 93.7505 81.064C94.7699 80.4959 95.4071 79.4177 95.4071 78.2467V59.6734C95.4071 58.4097 94.6657 57.2619 93.5188 56.7402C89.6266 54.9779 85.8617 52.4041 82.3401 49.0651C81.7262 48.497 80.9269 48.1956 80.1276 48.1956Z" fill="#3C2415"/>
    <path d="M99.0561 39.4653C98.9171 39.4653 98.7896 39.4537 98.6506 39.4189C98.2336 39.3146 97.8861 39.0479 97.666 38.6769C95.5113 34.9901 93.82 31.1294 92.6269 27.1991C92.4068 26.4918 92.708 25.7266 93.3451 25.344L107.64 16.8458C107.895 16.6951 108.173 16.6255 108.462 16.6255C108.706 16.6255 108.949 16.6835 109.169 16.7878C109.656 17.0313 109.992 17.495 110.061 18.0399C110.571 22.1441 111.474 26.2136 112.772 30.1091C113.015 30.8279 112.714 31.6163 112.065 31.9989L99.8786 39.245C99.6237 39.3958 99.3457 39.4653 99.0561 39.4653Z" fill="#DC0107"/>
    <path d="M108.462 18.237C108.984 22.4456 109.91 26.5961 111.243 30.6192L99.0561 37.8653C96.9941 34.3292 95.3376 30.5844 94.1676 26.7353L108.462 18.237ZM108.462 15.0139C107.895 15.0139 107.327 15.1646 106.817 15.4661L92.5226 23.9643C91.2484 24.7179 90.6576 26.2483 91.0862 27.6744C92.3141 31.7206 94.0633 35.6973 96.2759 39.4885C96.7045 40.2305 97.4227 40.7638 98.2452 40.9841C98.5116 41.0536 98.7781 41.0884 99.0561 41.0884C99.6237 41.0884 100.191 40.9377 100.701 40.6363L112.888 33.3901C114.185 32.6133 114.776 31.0482 114.301 29.6105C113.038 25.8078 112.146 21.8543 111.66 17.8428C111.521 16.7646 110.86 15.8255 109.887 15.3501C109.424 15.1183 108.949 15.0139 108.462 15.0139Z" fill="#3C2415"/>
    <path d="M134.341 11.8025L85.9081 40.5784V118.756C85.9892 118.756 86.0703 118.756 86.1513 118.756C88.3639 118.756 90.4259 118.674 92.1867 118.524V115.938V41.9464L139.056 14.0981C139.056 14.0865 136.369 13.3908 134.341 11.8025Z" fill="#D1D3D4"/>
    <path d="M137.724 15.8487C135.627 15.8487 133.334 13.8082 131.862 10.6431C130.044 6.71276 130.414 3.0723 132.754 1.99407C133.16 1.80857 133.6 1.71582 134.052 1.71582C136.149 1.71582 138.442 3.75633 139.902 6.92145C141.049 9.40252 141.361 11.9068 140.724 13.6227C140.296 14.7821 139.566 15.3154 139.01 15.5704C138.628 15.7559 138.187 15.8487 137.724 15.8487Z" fill="#9B2E2C"/>
    <path d="M134.063 3.42018C135.407 3.42018 137.214 5.13606 138.361 7.64033C139.705 10.5388 139.682 13.3909 138.315 14.0169C138.129 14.0981 137.932 14.1445 137.724 14.1445C136.38 14.1445 134.573 12.4286 133.415 9.92431C132.082 7.03745 132.106 4.17378 133.473 3.54771C133.658 3.45496 133.855 3.42018 134.063 3.42018ZM134.063 0C133.357 0 132.673 0.15072 132.036 0.440565C128.758 1.95936 128.051 6.44617 130.322 11.3619C131.712 14.3647 134.388 17.5646 137.736 17.5646C138.442 17.5646 139.126 17.4139 139.751 17.1241C140.933 16.5792 141.86 15.5357 142.346 14.214C143.145 12.046 142.821 9.12434 141.466 6.20269C140.087 3.19989 137.411 0 134.063 0Z" fill="#3C2415"/>
    <path d="M89.6729 267.469C72.4589 267.469 55.0826 265.904 38.0539 262.809L36.8492 262.588L29.5627 183.936L31.6479 184.318C52.4646 188.144 71.4394 190.011 89.6613 190.011C105.902 190.011 122.641 188.539 140.84 185.513L142.902 185.176L135.627 263.771L134.388 263.968C119.583 266.298 104.535 267.469 89.6729 267.469Z" fill="#FFD45A"/>
    <path d="M31.3699 185.918C49.1979 189.2 68.9257 191.634 89.6845 191.634C107.814 191.634 125.155 189.779 141.13 187.113L134.168 262.38C120.151 264.571 105.207 265.858 89.6845 265.858C71.6016 265.858 54.2949 264.119 38.3551 261.22L31.3699 185.918ZM27.7672 181.977L28.1611 186.208L35.1347 261.522L35.3548 263.956L37.7528 264.397C54.8857 267.504 72.3546 269.081 89.6613 269.081C104.605 269.081 119.734 267.898 134.643 265.568L137.122 265.185L137.353 262.693L144.315 187.426L144.698 183.275L140.585 183.959C122.479 186.973 105.821 188.434 89.6613 188.434C71.5321 188.434 52.65 186.579 31.9375 182.777L27.7672 181.977Z" fill="#3C2415"/>
    <path d="M127.982 189.049L121.031 264.119C125.491 263.632 129.87 263.052 134.156 262.38L141.118 187.113C136.844 187.82 132.442 188.469 127.982 189.049Z" fill="#FFD45A"/>
    <g opacity="0.6">
    <g opacity="0.6">
    <path opacity="0.6" d="M33.8489 162.476C35.8182 183.217 37.7759 203.97 39.7452 224.711C40.2318 229.836 48.2711 229.882 47.7846 224.711C45.8153 203.97 43.8576 183.217 41.8883 162.476C41.4133 157.363 33.3623 157.305 33.8489 162.476Z" fill="white"/>
    </g>
    <g opacity="0.6">
    <path opacity="0.6" d="M44.8075 243.922C49.9972 243.922 49.9972 235.876 44.8075 235.876C39.6178 235.876 39.6178 243.922 44.8075 243.922Z" fill="white"/>
    </g>
    </g>
    <path d="M76.7798 232.873C76.7798 235.146 74.9379 236.978 72.679 236.978C70.4085 236.978 68.5782 235.134 68.5782 232.873" stroke="#3C2415" stroke-width="1.6422" stroke-miterlimit="10" stroke-linecap="round" stroke-linejoin="round"/>
    <path d="M63.0989 230.3C63.0989 233.558 60.4577 236.213 57.2025 236.213C53.9474 236.213 51.3062 233.569 51.3062 230.3C51.3062 227.042 53.9474 224.398 57.2025 224.398C60.4577 224.398 63.0989 227.042 63.0989 230.3Z" fill="#3C2415"/>
    <path d="M56.4727 227.784C56.4727 228.827 55.6271 229.674 54.5845 229.674C53.542 229.674 52.6963 228.827 52.6963 227.784C52.6963 226.74 53.542 225.894 54.5845 225.894C55.6271 225.906 56.4727 226.74 56.4727 227.784Z" fill="white"/>
    <path d="M56.3453 230.659C56.3453 231.053 56.021 231.366 55.6387 231.366C55.2448 231.366 54.932 231.053 54.932 230.659C54.932 230.265 55.2564 229.952 55.6387 229.952C56.021 229.952 56.3453 230.265 56.3453 230.659Z" fill="white"/>
    <path d="M57.191 229.21C57.4341 229.21 57.6312 229.013 57.6312 228.769C57.6312 228.526 57.4341 228.329 57.191 228.329C56.9478 228.329 56.7508 228.526 56.7508 228.769C56.7508 229.013 56.9478 229.21 57.191 229.21Z" fill="white"/>
    <path d="M59.2414 236.213C59.2414 236.943 56.9245 237.534 54.0748 237.534C51.2251 237.534 48.9083 236.943 48.9083 236.213C48.9083 235.482 51.2251 234.891 54.0748 234.891C56.9245 234.891 59.2414 235.482 59.2414 236.213Z" fill="#F27482"/>
    <path d="M94.295 230.3C94.295 233.558 91.6538 236.213 88.3987 236.213C85.1435 236.213 82.5023 233.569 82.5023 230.3C82.5023 227.042 85.1435 224.398 88.3987 224.398C91.6538 224.398 94.295 227.042 94.295 230.3Z" fill="#3C2415"/>
    <path d="M87.6688 227.784C87.6688 228.827 86.8232 229.674 85.7806 229.674C84.7381 229.674 83.904 228.827 83.904 227.784C83.904 226.74 84.7496 225.894 85.7806 225.894C86.8232 225.906 87.6688 226.74 87.6688 227.784Z" fill="white"/>
    <path d="M87.5414 230.659C87.5414 231.053 87.2287 231.366 86.8348 231.366C86.4409 231.366 86.1282 231.053 86.1282 230.659C86.1282 230.265 86.4409 229.952 86.8348 229.952C87.2171 229.952 87.5414 230.265 87.5414 230.659Z" fill="white"/>
    <path d="M88.8388 228.769C88.8388 229.013 88.6419 229.21 88.3986 229.21C88.1554 229.21 87.9584 229.013 87.9584 228.769C87.9584 228.526 88.1554 228.329 88.3986 228.329C88.6419 228.329 88.8388 228.526 88.8388 228.769Z" fill="white"/>
    <path d="M96.4497 236.213C96.4497 236.943 94.1328 237.534 91.2831 237.534C88.4334 237.534 86.1166 236.943 86.1166 236.213C86.1166 235.482 88.4334 234.891 91.2831 234.891C94.1328 234.891 96.4497 235.482 96.4497 236.213Z" fill="#F27482"/>
    <path d="M86.5915 220.178C86.5915 220.178 91.3063 218.416 94.7584 222.3" stroke="#3C2415" stroke-width="1.6422" stroke-miterlimit="10" stroke-linecap="round" stroke-linejoin="round"/>
    <path d="M58.7664 220.178C58.7664 220.178 54.0516 218.416 50.588 222.3" stroke="#3C2415" stroke-width="1.6422" stroke-miterlimit="10" stroke-linecap="round" stroke-linejoin="round"/>
    <path d="M148.474 271.492C148.474 271.492 147.2 238.914 126.221 242.728" stroke="#3C2415" stroke-width="4.3969" stroke-miterlimit="10" stroke-linecap="round" stroke-linejoin="round"/>
    <path d="M148.161 272.837L145.508 276.883" stroke="#3C2415" stroke-width="4.3969" stroke-miterlimit="10" stroke-linecap="round" stroke-linejoin="round"/>
    <path d="M148.161 272.837L149.412 277.509" stroke="#3C2415" stroke-width="4.3969" stroke-miterlimit="10" stroke-linecap="round" stroke-linejoin="round"/>
    <path d="M148.161 272.837L152.482 275.005" stroke="#3C2415" stroke-width="4.3969" stroke-miterlimit="10" stroke-linecap="round" stroke-linejoin="round"/>
    </g>
    <defs>
    <clipPath id="clip0">
    <rect width="157" height="352" fill="white"/>
    </clipPath>
    </defs>
    </svg>
