<svg width="30" height="30" viewBox="0 0 30 30" fill="none" xmlns="http://www.w3.org/2000/svg">
    <g clip-path="url(#clip0)">
    <path fill-rule="evenodd" clip-rule="evenodd" d="M4.26789 8.80243C4.30425 8.44485 4.16728 8.09212 3.90062 7.85212L1.18546 4.5794V4.09091H9.6194L16.1382 18.3879L21.8691 4.09091H29.9091V4.5794L27.5867 6.80606C27.3867 6.95879 27.2873 7.2097 27.3285 7.45818V23.8194C27.2873 24.0667 27.3867 24.3176 27.5867 24.4703L29.8546 26.697V27.1855H18.4461V26.697L20.7964 24.4158C21.0267 24.1855 21.0267 24.1176 21.0267 23.7649V10.5406L14.4946 27.1321H13.6121L6.00607 10.5406V21.6606C5.94304 22.1273 6.09819 22.5988 6.42668 22.9358L9.48243 26.6424V27.1321H0.818192V26.6424L3.87395 22.9358C4.20122 22.5976 4.34668 22.1236 4.26789 21.6606V8.80243Z" fill="white"/>
    </g>
    <defs>
    <clipPath id="clip0">
    <rect width="29.0909" height="29.0909" fill="white" transform="translate(0.818192 0.454559)"/>
    </clipPath>
    </defs>
    </svg>
