<svg width="296" height="319" viewBox="0 0 296 319" fill="none" xmlns="http://www.w3.org/2000/svg">
    <path d="M134.752 253.646C89.2759 253.646 63.2845 237.208 62.5454 231.513L37.4191 45.9239C36.8424 41.454 38.1041 37.0382 40.8979 33.848C43.6016 30.766 47.4228 29.0718 51.6586 29.0718H217.827C222.063 29.0718 225.884 30.766 228.588 33.848C231.382 37.0382 232.662 41.472 232.067 45.996L206.959 231.477C206.093 238.092 177.146 253.646 134.752 253.646Z" fill="#F6F6F6"/>
    <path d="M217.845 31.4511C225.398 31.4511 230.751 37.8495 229.724 45.6717L204.615 231.207C204.093 235.118 177.813 251.267 134.752 251.267C89.6184 251.267 65.4113 235.118 64.9066 231.207L39.7803 45.6717C38.7529 37.8495 44.0882 31.4511 51.6586 31.4511H217.845ZM217.845 26.6929H51.6766C46.7378 26.6929 42.2858 28.6755 39.1315 32.2622C35.887 35.975 34.409 41.0757 35.0759 46.2845L60.1842 231.693C61.3197 240.345 90.4655 256.007 134.77 256.007C176.713 256.007 208.22 240.309 209.338 231.82L234.464 46.1584C235.131 41.0757 233.653 35.975 230.409 32.2622C227.236 28.6755 222.784 26.6929 217.845 26.6929Z" fill="#432918"/>
    <path d="M217.845 31.4512H212.672L187.78 214.859C187.276 218.771 160.996 234.92 117.935 234.92C94.0344 234.92 76.0639 230.396 64.3118 225.548L64.9066 231.225C65.4113 235.136 89.6184 251.285 134.752 251.285C177.813 251.285 204.093 235.136 204.615 231.225L229.724 45.6898C230.751 37.8315 225.398 31.4512 217.845 31.4512Z" fill="#C6C6C6"/>
    <path d="M134.752 76.0595C90.8981 76.0595 25.631 70.0577 25.631 53.53V33.3976C25.631 32.0819 26.6945 31.0005 28.0283 31.0005H241.476C242.791 31.0005 243.873 32.0639 243.873 33.3976V53.53C243.873 70.0577 178.624 76.0595 134.752 76.0595Z" fill="#C6C6C6"/>
    <path d="M241.476 33.3978V53.5302C241.476 64.6508 193.692 73.6806 134.752 73.6806C75.8115 73.6806 28.0283 64.6688 28.0283 53.5302V33.3978H241.476ZM241.476 28.6035H28.0283C25.3787 28.6035 23.2518 30.7483 23.2518 33.3798V53.5302C23.2518 78.1685 130.21 78.4568 134.752 78.4568C139.294 78.4568 246.252 78.1685 246.252 53.5302V33.3978C246.27 30.7483 244.125 28.6035 241.476 28.6035Z" fill="#432918"/>
    <path d="M134.752 55.9272C195.018 55.9272 243.873 45.8404 243.873 33.3977C243.873 20.955 195.018 10.8682 134.752 10.8682C74.4862 10.8682 25.631 20.955 25.631 33.3977C25.631 45.8404 74.4862 55.9272 134.752 55.9272Z" fill="#F6F6F6"/>
    <path d="M134.752 13.2474C193.692 13.2474 241.476 22.2593 241.476 33.3798C241.476 44.5004 193.692 53.5122 134.752 53.5122C75.8115 53.5122 28.0283 44.5004 28.0283 33.3798C28.0283 22.2773 75.8115 13.2474 134.752 13.2474ZM134.752 8.47119C130.21 8.47119 23.2518 8.75957 23.2518 33.3979C23.2518 58.0361 130.21 58.3245 134.752 58.3245C139.294 58.3245 246.252 58.0361 246.252 33.3979C246.252 8.75957 139.312 8.47119 134.752 8.47119Z" fill="#432918"/>
    <g opacity="0.6">
    <g opacity="0.6">
    <path opacity="0.6" d="M51.9829 98.3552C55.0832 130.311 58.1834 143.54 61.2836 175.478C62.0407 183.373 74.748 183.445 73.973 175.478C70.8727 143.54 67.7725 130.311 64.6723 98.3552C63.8972 90.4789 51.2079 90.4068 51.9829 98.3552Z" fill="white"/>
    </g>
    <g opacity="0.6">
    <path opacity="0.6" d="M69.2685 205.073C77.4517 205.073 77.4517 192.673 69.2685 192.673C61.0854 192.673 61.0854 205.073 69.2685 205.073Z" fill="white"/>
    </g>
    </g>
    <path d="M105.768 153.94C105.768 155.652 100.325 157.04 93.6018 157.04C86.8786 157.04 81.4352 155.652 81.4352 153.94C81.4352 152.228 86.8786 150.84 93.6018 150.84C100.325 150.84 105.768 152.228 105.768 153.94Z" fill="#ED6F81"/>
    <path d="M193.422 153.94C193.422 155.652 187.979 157.04 181.255 157.04C174.532 157.04 169.089 155.652 169.089 153.94C169.089 152.228 174.532 150.84 181.255 150.84C187.979 150.84 193.422 152.228 193.422 153.94Z" fill="#ED6F81"/>
    <path d="M170.206 116.198C170.206 116.198 181.327 112.035 189.457 121.191" stroke="#432918" stroke-width="1.0163" stroke-miterlimit="10" stroke-linecap="round" stroke-linejoin="round"/>
    <path d="M104.669 116.198C104.669 116.198 93.5477 112.035 85.4186 121.191" stroke="#432918" stroke-width="1.0163" stroke-miterlimit="10" stroke-linecap="round" stroke-linejoin="round"/>
    <path d="M92.0516 147.307C93.5116 140.206 96.9543 135.213 100.956 135.213C104.939 135.213 108.346 140.134 109.842 147.163" stroke="#432918" stroke-width="1.0163" stroke-miterlimit="10" stroke-linecap="round" stroke-linejoin="round"/>
    <path d="M165.556 147.307C167.016 140.206 170.459 135.213 174.46 135.213C178.444 135.213 181.868 140.134 183.346 147.163" stroke="#432918" stroke-width="1.0163" stroke-miterlimit="10" stroke-linecap="round" stroke-linejoin="round"/>
    <path d="M147.117 143.414C147.117 148.749 142.791 153.093 137.438 153.093C132.084 153.093 127.758 148.767 127.758 143.414" stroke="#432918" stroke-width="1.0163" stroke-miterlimit="10" stroke-linecap="round" stroke-linejoin="round"/>
    <path d="M150.271 153.561C149.712 153.561 149.118 153.417 148.523 153.146C146.486 152.227 144.485 151.11 144.864 149.65C145.044 148.965 145.549 148.136 145.981 147.397L146.342 146.802C146.738 146.099 147.261 145.739 147.892 145.739C148.397 145.739 148.811 145.973 149.262 146.225L149.712 146.46C151.19 147.199 152.867 148.028 153.335 149.542C153.57 150.317 153.461 151.11 152.993 151.921C152.398 152.984 151.425 153.561 150.271 153.561Z" fill="#ED6F81"/>
    <path d="M147.91 146.676C148.288 146.676 148.721 147.001 149.316 147.289C150.812 148.046 153.48 149.181 152.182 151.452C151.731 152.246 151.046 152.624 150.271 152.624C149.839 152.624 149.37 152.516 148.901 152.3C148.324 152.047 145.531 150.804 145.765 149.884C145.963 149.127 146.792 147.938 147.171 147.253C147.405 146.82 147.658 146.676 147.91 146.676ZM147.91 144.802C147.225 144.802 146.252 145.072 145.531 146.352C145.441 146.514 145.314 146.712 145.188 146.929C144.72 147.722 144.179 148.605 143.944 149.434C143.314 151.849 146.54 153.309 148.09 153.994C148.847 154.336 149.568 154.498 150.271 154.498C151.749 154.498 153.047 153.723 153.804 152.372C154.543 151.074 154.435 149.957 154.219 149.254C153.642 147.361 151.677 146.388 150.397 145.739L150.145 145.613C149.983 145.541 149.857 145.469 149.73 145.397C149.262 145.126 148.667 144.802 147.91 144.802Z" fill="#432918"/>
    <path d="M146.792 148.406L149.37 149.866" stroke="#432918" stroke-width="0.4631" stroke-miterlimit="10" stroke-linecap="round" stroke-linejoin="round"/>
    <path d="M164.907 253.196C164.907 253.196 182.085 274.824 170.423 308.078L177.326 313.269" stroke="#432918" stroke-width="4.3969" stroke-miterlimit="10" stroke-linecap="round" stroke-linejoin="round"/>
    <path d="M109.139 254.98C109.139 254.98 91.9435 276.609 103.605 309.862L96.702 315.053" stroke="#432918" stroke-width="4.3969" stroke-miterlimit="10" stroke-linecap="round" stroke-linejoin="round"/>
    <path d="M28.8214 31.001C28.8214 31.001 43.4393 6.11035 138.249 6.11035C233.058 6.11035 241.476 33.3981 241.476 33.3981L146.54 42.7343L76.0638 44.9512L28.8214 31.001Z" fill="#F6F6F6"/>
    <path d="M66.6009 37.6695L50.595 25.6838L61.6621 22.2594L61.3737 12.4185L73.0176 14.9778L66.6009 37.6695Z" fill="#432918"/>
    <path d="M75.0544 44.9509L80.2996 26.9633L86.9867 41.0939L93.0971 15.8428L104.453 26.1162L100.956 40.2467L94.8455 44.9509L97.1706 46.2306L88.7351 48.3754L75.0544 44.9509Z" fill="#432918"/>
    <path d="M87.5635 14.1305L82.048 21.4121L79.4164 8.99378L98.6306 0L92.5203 11.5531L87.5635 14.1305Z" fill="#432918"/>
    <path d="M99.5138 11.9857L107.084 17.555L111.734 5.13672L117.845 11.5531L112.906 23.5388L108.526 22.6917L100.379 17.1224L99.5138 11.9857Z" fill="#432918"/>
    <path d="M112.906 34.8936L117.556 24.8364L132.12 36.1733L115.375 41.0937L111.014 47.9427L102.704 43.8874" fill="#432918"/>
    <path d="M120.909 14.3469L124.406 10.2736L133.418 4.28975L126.136 1.49609L141.277 1.71238L139.384 17.1226L125.127 22.6919L120.909 14.3469Z" fill="#432918"/>
    <path d="M134.301 28.6754L140.7 41.0937L145.206 38.7506L145.657 19.4834L136.482 21.1956L126.443 25.0527L134.301 28.6754Z" fill="#432918"/>
    <path d="M144.774 15.4102L143.314 0L152.632 2.57738L148.847 12.6346" fill="#432918"/>
    <path d="M142.16 44.9513L151.623 40.4634C151.623 40.4634 152.056 45.8164 150.451 46.4652C148.847 47.1141 127.74 49.6734 127.74 49.6734L142.16 44.9513Z" fill="#432918"/>
    <path d="M151.028 21.6284L155.264 10.9224L159.049 20.7633L150.307 33.6141L151.028 21.6284Z" fill="#432918"/>
    <path d="M158.743 14.5629L173.162 13.4814L168.35 23.3404L169.089 35.5424L161.951 35.1098L165.015 19.9159L159.482 30.1893L161.663 15.8425L158.743 14.5629Z" fill="#432918"/>
    <path d="M162.528 4.48758L173.739 1.92822L168.8 9.20976L162.095 10.0569L161.951 4.48758" fill="#432918"/>
    <path d="M160.635 45.3834L164.276 41.3101L169.377 45.1671L166.169 48.5916" fill="#432918"/>
    <path d="M178.552 17.9877L182.914 6.00195C182.914 6.00195 190.196 6.00195 189.024 7.06535C187.852 8.12874 179.417 20.1144 179.417 20.1144" fill="#432918"/>
    <path d="M174.622 30.1895L178.84 33.1814L174.334 47.9427C174.334 47.9427 171.72 42.3734 171.865 41.31C172.009 40.2466 175.488 34.2448 175.488 34.2448" fill="#432918"/>
    <path d="M175.92 21.1958L181.165 25.6837L180.733 28.0448L169.81 26.3325L175.92 21.1958Z" fill="#432918"/>
    <path d="M188.88 17.9874L192.377 3.64062L200.235 10.057L194.558 19.4834" fill="#432918"/>
    <path d="M187.726 20.1143L190.051 28.0266L186.122 34.0285C186.122 34.0285 183.058 27.6121 183.653 26.1161C184.229 24.6202 186.573 21.6282 186.573 21.6282" fill="#432918"/>
    <path d="M182.048 39.3815C182.048 39.3815 177.236 45.5817 177.687 45.3834C178.119 45.1671 182.788 44.1037 182.788 44.1037L186.573 39.8141L182.788 36.1733L182.067 38.3182" fill="#432918"/>
    <path d="M198.631 25.4673C199.208 25.6836 208.382 9.62451 208.382 9.62451L206.922 17.9694L206.057 19.898" fill="#432918"/>
    <path d="M193.981 33.8305L202.128 33.1816C202.128 33.1816 199.803 38.7509 198.92 39.3818C198.036 40.0126 186.699 42.8063 186.699 42.8063" fill="#432918"/>
    <path d="M209.266 23.9713L214.511 9.62451L220.621 18.8346L216.98 25.4673" fill="#432918"/>
    <path d="M198.919 26.9633L202.128 25.6836C202.128 25.6836 203.444 26.747 202.416 28.0447C201.389 29.3424 200.956 30.1895 199.658 30.8203C198.343 31.4692 195.008 31.2529 195.008 31.2529" fill="#432918"/>
    <path d="M208.527 24.6206L204.453 28.8922L212.312 27.8288L206.49 35.3266" fill="#432918"/>
    <path d="M203.444 41.31L209.987 35.7407L212.762 40.0303L209.121 43.0223" fill="#432918"/>
    <path d="M211.591 31.9018C212.023 31.6855 218.44 26.1162 218.44 26.1162C218.44 26.1162 218.008 29.1081 216.98 31.0367C215.953 32.9652 213.628 34.4611 213.628 34.4611" fill="#432918"/>
    <path d="M222.514 26.9633C222.658 26.3144 225.271 16.041 226.299 15.6264C227.326 15.1939 227.759 20.5469 227.759 20.5469C227.759 20.5469 225.722 24.1877 225.145 25.0348" fill="#432918"/>
    <path d="M220.477 29.3243C220.477 29.3243 226.876 27.1795 226.01 29.3243C225.145 31.4692 221.054 35.3262 221.054 35.3262L214.204 37.471" fill="#432918"/>
    <path d="M230.949 22.0429C230.949 22.0429 233.869 15.8427 233.869 18.6184C233.869 21.394 234.013 25.4674 233.004 26.9633C231.977 28.4593 229.219 28.0267 229.219 28.0267" fill="#432918"/>
    <path d="M230.228 32.3162L233.725 30.604L232.553 36.8222L226.443 38.967" fill="#432918"/>
    <path d="M46.0889 16.9063L53.9477 11.9858C53.9477 11.9858 56.7054 18.6185 54.9751 20.1145C53.2267 21.6105 46.3953 26.7472 46.3953 26.7472" fill="#432918"/>
    <path d="M40.1228 19.2671C40.1228 19.2671 34.3188 23.0881 35.3282 24.8184C36.3376 26.5486 48.1257 31.2528 48.1257 31.2528" fill="#432918"/>
    <path d="M48.1257 37.8857C49.2973 37.4531 58.1654 37.4531 58.7602 37.4531C59.355 37.4531 60.5086 39.1654 58.9044 40.6613C57.3002 42.1573 54.254 43.2387 54.254 43.2387" fill="#432918"/>
    <path d="M284.789 77.105C284.789 77.105 283.166 157.04 223.938 122.452" stroke="#432918" stroke-width="4.3969" stroke-miterlimit="10" stroke-linecap="round" stroke-linejoin="round"/>
    <path d="M284.158 74.672L279.147 67.3184" stroke="#432918" stroke-width="4.3969" stroke-miterlimit="10" stroke-linecap="round" stroke-linejoin="round"/>
    <path d="M284.158 74.6719L286.321 66.0386" stroke="#432918" stroke-width="4.3969" stroke-miterlimit="10" stroke-linecap="round" stroke-linejoin="round"/>
    <path d="M284.158 74.6723L292.035 70.5269" stroke="#432918" stroke-width="4.3969" stroke-miterlimit="10" stroke-linecap="round" stroke-linejoin="round"/>
    <path d="M11.3195 218.554C11.3195 218.554 13.6627 158.734 52.2173 165.745" stroke="#432918" stroke-width="4.3969" stroke-miterlimit="10" stroke-linecap="round" stroke-linejoin="round"/>
    <path d="M11.9142 221.006L16.7809 228.432" stroke="#432918" stroke-width="4.3969" stroke-miterlimit="10" stroke-linecap="round" stroke-linejoin="round"/>
    <path d="M11.9142 221.006L9.58905 229.585" stroke="#432918" stroke-width="4.3969" stroke-miterlimit="10" stroke-linecap="round" stroke-linejoin="round"/>
    <path d="M11.9142 221.006L3.96539 224.989" stroke="#432918" stroke-width="4.3969" stroke-miterlimit="10" stroke-linecap="round" stroke-linejoin="round"/>
    <path d="M61.2837 222.267C84.7878 225.385 109.716 227.079 135.545 227.079C160.779 227.079 185.167 225.475 208.184 222.483" stroke="#4B6AAB" stroke-width="6" stroke-miterlimit="10"/>
    <path d="M212.474 190.834C188.555 193.736 162.636 195.34 135.563 195.34C107.877 195.34 81.3991 193.682 57.0118 190.636" stroke="#4B6AAB" stroke-width="6" stroke-miterlimit="10"/>
    <path d="M214.132 160.897L204.615 231.189C204.093 235.1 177.813 251.249 134.752 251.249C89.6183 251.249 65.4113 235.1 64.9066 231.189L55.3896 160.897H50.595L60.1841 231.694C61.3197 240.345 90.4654 256.008 134.77 256.008C176.713 256.008 208.22 240.309 209.338 231.82L218.927 160.897H214.132Z" fill="#432918"/>
    </svg>
