<svg width="28" height="24" viewBox="0 0 28 24" fill="none" xmlns="http://www.w3.org/2000/svg">
    <path fill-rule="evenodd" clip-rule="evenodd" d="M27.7514 1.12356L23.3766 22.0809C23.3766 22.0809 22.7648 23.5342 21.0823 22.8364L10.9868 15.4825L7.31572 13.7968L1.13613 11.8201C1.13613 11.8201 0.187752 11.5003 0.0960923 10.8028C0.0042856 10.105 1.16673 9.7273 1.16673 9.7273L25.7324 0.571243C25.7324 0.571243 27.7512 -0.271698 27.7512 1.12356H27.7514Z" fill="white"/>
    <path fill-rule="evenodd" clip-rule="evenodd" d="M10.2099 20.5179C10.2099 20.5179 9.91524 20.4916 9.54801 19.3871C9.18094 18.2826 7.31496 12.4693 7.31496 12.4693L22.1519 3.51662C22.1519 3.51662 23.0084 3.02246 22.9778 3.51662C22.9778 3.51662 23.1309 3.60371 22.672 4.01065C22.2131 4.41758 11.0165 13.9806 11.0165 13.9806L10.2101 20.5179H10.2099Z" fill="white"/>
    </svg>
