<svg width="34" height="34" viewBox="0 0 34 34" fill="none" xmlns="http://www.w3.org/2000/svg">
    <path d="M26 10.0078C25.2165 10.5349 24.349 10.938 23.4309 11.2016C22.9382 10.6613 22.2833 10.2783 21.5548 10.1045C20.8264 9.93073 20.0596 9.97445 19.3581 10.2298C18.6565 10.4851 18.0542 10.9397 17.6324 11.5322C17.2107 12.1246 16.9899 12.8263 17 13.5422V14.3225C15.5622 14.358 14.1374 14.0539 12.8526 13.4373C11.5679 12.8206 10.463 11.9105 9.63636 10.7881C9.63636 10.7881 6.36364 17.81 13.7273 20.9309C12.0422 22.0216 10.0349 22.5685 8 22.4913C15.3636 26.3924 24.3636 22.4913 24.3636 13.5188C24.3629 13.3015 24.341 13.0847 24.2982 12.8712C25.1332 12.086 25.7225 11.0945 26 10.0078Z" fill="white"/>
    </svg>
