<svg width="28" height="32" viewBox="0 0 28 32" fill="none" xmlns="http://www.w3.org/2000/svg">
    <g clip-path="url(#clip0)">
    <path d="M8.56014 3.30966C8.18892 3.24782 8.17327 3.24057 8.34795 3.21172C8.68272 3.15643 9.47322 3.2318 10.018 3.37091C11.2897 3.69561 12.4468 4.52737 13.6821 6.0046L14.0102 6.39705L14.4797 6.31598C16.4574 5.9746 18.4693 6.24592 20.1521 7.08091C20.615 7.31062 21.345 7.7679 21.4362 7.88541C21.4652 7.92285 21.5185 8.16391 21.5546 8.42115C21.6796 9.31109 21.617 9.99325 21.3637 10.5028C21.2257 10.78 21.218 10.8679 21.3108 11.1051C21.3848 11.2945 21.5911 11.4346 21.7954 11.4343C22.2135 11.4337 22.6636 10.7076 22.8723 9.69729L22.9552 9.29599L23.1192 9.49565C24.0194 10.5911 24.7265 12.0851 24.8479 13.1485L24.8795 13.4257L24.7283 13.1737C24.4679 12.74 24.2061 12.4447 23.8711 12.2066C23.2671 11.7773 22.6285 11.6312 20.9373 11.5355C19.4098 11.4491 18.5453 11.3089 17.6881 11.0087C16.2296 10.4979 15.4944 9.81768 13.7619 7.3762C12.9924 6.29179 12.5168 5.69181 12.0437 5.20863C10.9687 4.11073 9.91232 3.53494 8.56014 3.30966Z" fill="white"/>
    <path d="M21.7806 5.73091C21.8191 5.00425 21.9107 4.52495 22.0953 4.08724C22.1683 3.91399 22.2366 3.77219 22.2473 3.77219C22.2577 3.77219 22.226 3.90006 22.1766 4.05635C22.0426 4.48114 22.0205 5.06217 22.1129 5.73818C22.2301 6.59591 22.2968 6.71966 23.1409 7.64619C23.5367 8.08079 23.9973 8.62889 24.1641 8.86422L24.4677 9.2921L24.1641 8.98631C23.7929 8.61236 22.9394 7.88308 22.7509 7.77882C22.6243 7.70891 22.6056 7.71013 22.5276 7.7935C22.4557 7.87032 22.4405 7.98575 22.4307 8.5315C22.4151 9.38209 22.3071 9.92803 22.0467 10.4739C21.9058 10.7692 21.8835 10.7061 22.011 10.3729C22.1061 10.1241 22.1158 10.0147 22.1152 9.19128C22.1136 7.53686 21.9309 7.13912 20.8586 6.45778C20.5869 6.28517 20.1392 6.03625 19.8638 5.90458C19.5884 5.77291 19.3697 5.65822 19.3776 5.64965C19.408 5.6172 20.4537 5.94505 20.8747 6.11898C21.5009 6.37767 21.6041 6.41121 21.6801 6.37999C21.7313 6.35907 21.7559 6.19962 21.7806 5.73091Z" fill="white"/>
    <path d="M9.28118 8.56114C8.52757 7.44673 8.06129 5.73808 8.16224 4.46079L8.19345 4.06552L8.36499 4.09914C8.68713 4.16225 9.24256 4.38431 9.50264 4.55399C10.2164 5.01957 10.5254 5.63256 10.8397 7.20662C10.9318 7.66768 11.0526 8.18943 11.1082 8.36607C11.1977 8.65038 11.5359 9.31448 11.8108 9.74578C12.0088 10.0564 11.8773 10.2036 11.4395 10.1612C10.771 10.0963 9.86539 9.42503 9.28118 8.56114Z" fill="white"/>
    <path d="M20.8665 16.8552C17.3447 15.3321 16.1043 14.0101 16.1043 11.7794C16.1043 11.4511 16.1148 11.1825 16.1276 11.1825C16.1405 11.1825 16.2767 11.2908 16.4304 11.4233C17.1446 12.0385 17.9443 12.3013 20.1582 12.6482C21.461 12.8524 22.1942 13.0173 22.8705 13.2582C25.02 14.0239 26.3499 15.5779 26.6671 17.6944C26.7593 18.3095 26.7052 19.4628 26.5558 20.0706C26.438 20.5507 26.0779 21.4161 25.9824 21.4494C25.9559 21.4586 25.93 21.3496 25.9231 21.2013C25.887 20.4065 25.5131 19.6328 24.8852 19.0532C24.1712 18.3942 23.212 17.8695 20.8665 16.8552Z" fill="white"/>
    <path d="M18.3941 17.488C18.35 17.2059 18.2734 16.8457 18.224 16.6875L18.1342 16.4L18.3011 16.6012C18.5321 16.8797 18.7146 17.236 18.8693 17.7106C18.9874 18.0729 19.0007 18.1806 18.9998 18.7692C18.9989 19.3471 18.9841 19.4683 18.8751 19.7943C18.7032 20.3085 18.4898 20.673 18.1318 21.0643C17.4885 21.7677 16.6614 22.157 15.4678 22.3185C15.2603 22.3465 14.6556 22.3938 14.124 22.4235C12.7842 22.4984 11.9025 22.653 11.1101 22.9519C10.9962 22.9948 10.8945 23.021 10.8842 23.0099C10.8521 22.9756 11.3916 22.6302 11.8372 22.3996C12.4654 22.0745 13.0909 21.8972 14.4921 21.6465C15.1844 21.5226 15.8992 21.3724 16.0807 21.3126C17.795 20.7481 18.6761 19.2912 18.3941 17.488Z" fill="white"/>
    <path d="M20.0085 20.5677C19.5406 19.4872 19.4332 18.444 19.6895 17.4712C19.717 17.3672 19.7611 17.2821 19.7876 17.2821C19.8141 17.2821 19.9245 17.3462 20.0329 17.4246C20.2486 17.5805 20.6811 17.8431 21.8331 18.5178C23.2708 19.3598 24.0906 20.0117 24.6481 20.7566C25.1363 21.4089 25.4383 22.1519 25.5838 23.0579C25.6661 23.571 25.6177 24.8058 25.4952 25.3225C25.1086 26.9519 24.2103 28.2317 22.9289 28.9786C22.7412 29.088 22.5726 29.1778 22.5545 29.1782C22.5361 29.1787 22.6046 28.9918 22.7065 28.7631C23.1374 27.7952 23.1865 26.8538 22.8606 25.8059C22.6611 25.1642 22.2542 24.3812 21.4328 23.0579C20.4776 21.5196 20.2435 21.1102 20.0085 20.5677Z" fill="white"/>
    <path d="M6.78014 26.3972C8.08706 25.212 9.7132 24.3699 11.1945 24.1114C11.8328 24 12.8963 24.0442 13.4874 24.2067C14.435 24.4672 15.2826 25.0507 15.7234 25.7457C16.1542 26.425 16.3391 27.017 16.5315 28.3341C16.6074 28.8538 16.69 29.3754 16.715 29.4936C16.8595 30.1762 17.1407 30.7217 17.4892 30.9958C18.0427 31.431 18.9958 31.4579 19.9334 31.0652C20.0925 30.9984 20.2306 30.9523 20.2403 30.9628C20.2745 30.999 19.8023 31.3385 19.4692 31.5172C19.021 31.7577 18.6646 31.8507 18.1911 31.8507C17.3324 31.8507 16.6195 31.3816 16.0246 30.4248C15.9075 30.2364 15.6444 29.6725 15.4399 29.1714C14.8117 27.6326 14.5016 27.164 13.7723 26.6509C13.1376 26.2046 12.3192 26.1246 11.7034 26.4489C10.8946 26.8749 10.6689 27.9851 11.2482 28.6886C11.4785 28.9683 11.9078 29.2094 12.2589 29.2563C12.9157 29.3442 13.4802 28.8075 13.4802 28.0952C13.4802 27.6326 13.3147 27.3688 12.898 27.1667C12.329 26.8909 11.7174 27.2134 11.7203 27.7875C11.7216 28.0324 11.8208 28.186 12.0493 28.2972C12.1959 28.3684 12.1993 28.374 12.0798 28.3473C11.5577 28.231 11.4354 27.555 11.8551 27.1061C12.3591 26.5675 13.4013 26.8051 13.7592 27.5407C13.9096 27.8496 13.927 28.4649 13.7959 28.8363C13.5026 29.6678 12.6471 30.105 11.7794 29.8671C11.1886 29.705 10.948 29.5296 10.2357 28.7416C8.99794 27.372 8.51742 27.1066 6.73298 26.8075L6.39104 26.7501L6.78014 26.3972Z" fill="white"/>
    <path fill-rule="evenodd" clip-rule="evenodd" d="M0.972403 1.88585C5.10595 7.27459 7.95293 9.49789 8.26931 9.96761C8.53053 10.3555 8.43222 10.7042 7.98471 10.9774C7.73585 11.1294 7.2242 11.2833 6.96803 11.2833C6.6783 11.2833 6.57881 11.1633 6.57881 11.1633C6.41082 10.9921 6.3162 11.022 5.45348 9.37719C4.25576 7.38094 3.2534 5.72496 3.22606 5.69723C3.16284 5.63312 3.16392 5.63528 5.33136 9.80082C5.68156 10.669 5.40101 10.9877 5.40101 11.1114C5.40101 11.3629 5.33713 11.4951 5.04823 11.8413C4.56663 12.4184 4.35134 13.0668 4.19592 14.4088C4.02171 15.9131 3.5318 16.9757 2.17414 18.7944C1.37941 19.8591 1.24937 20.0542 1.04883 20.4833C0.796243 21.0236 0.726791 21.3263 0.698642 22.0085C0.668889 22.73 0.726835 23.1962 0.932037 23.8859C1.11168 24.4898 1.2992 24.8885 1.77859 25.686C2.19229 26.3742 2.43049 26.8858 2.43049 27.0859C2.43049 27.245 2.4588 27.2452 3.09986 27.0897C4.63402 26.7177 5.87975 26.0632 6.58035 25.261C7.01396 24.7646 7.11576 24.4905 7.11906 23.8104C7.12123 23.3653 7.10666 23.2721 6.99468 23.0161C6.8124 22.5995 6.48054 22.253 5.74913 21.7161C4.7908 21.0123 4.38146 20.4458 4.26841 19.6667C4.17565 19.0275 4.28325 18.5765 4.81342 17.3829C5.36216 16.1476 5.49815 15.6211 5.59014 14.3759C5.64956 13.5714 5.73183 13.2541 5.94702 12.9994C6.17147 12.7339 6.37351 12.6439 6.92894 12.5624C7.83449 12.4296 8.4111 12.1779 8.88506 11.7088C9.29621 11.3018 9.46827 10.9097 9.49466 10.3194L9.51472 9.87195L9.28494 9.5842C8.45287 8.54211 0.41517 1.06668 0.363964 1.06668C0.353025 1.06668 0.626834 1.43533 0.972403 1.88585ZM2.89759 22.825C3.08571 22.467 2.98575 22.007 2.67107 21.7822C2.37374 21.5699 1.91184 21.67 1.91184 21.9467C1.91184 22.0312 1.95531 22.0926 2.05329 22.1468C2.21827 22.2379 2.23025 22.3405 2.10044 22.55C1.96898 22.7623 1.97959 22.9489 2.13038 23.0756C2.3734 23.28 2.71742 23.1676 2.89759 22.825Z" fill="white"/>
    <path fill-rule="evenodd" clip-rule="evenodd" d="M10.0862 12.7971C9.66106 12.9374 9.24781 13.4213 9.1199 13.9287C9.04186 14.2383 9.08614 14.7813 9.20302 14.949C9.39186 15.2199 9.57448 15.2913 10.069 15.2875C11.0371 15.2803 11.8787 14.8343 11.9765 14.2768C12.0567 13.8197 11.6871 13.1864 11.1779 12.9083C10.9152 12.7649 10.3565 12.708 10.0862 12.7971ZM11.2179 13.7477C11.3672 13.5198 11.3018 13.2736 11.0479 13.107C10.5644 12.7899 9.83319 13.0523 9.83319 13.5429C9.83319 13.7872 10.2145 14.0536 10.564 14.0536C10.7967 14.0536 11.115 13.9046 11.2179 13.7477Z" fill="white"/>
    </g>
    <defs>
    <clipPath id="clip0">
    <rect width="27.6364" height="32" fill="white" transform="translate(0.363647)"/>
    </clipPath>
    </defs>
    </svg>
